<svg xmlns:rdf="http://www.w3.org/1999/02/22-rdf-syntax-ns#" xmlns="http://www.w3.org/2000/svg" xml:space="preserve" height="105.37" viewBox="0 0 356.92874 105.36613" width="356.93" version="1.1" xmlns:cc="http://creativecommons.org/ns#" xmlns:dc="http://purl.org/dc/elements/1.1/"><g transform="matrix(1.25 0 0 -1.25 0 105.37)"><path d="m168.84 26.419c1.087-12.574 24.486-17.677 52.262-11.4 27.777 6.278 49.412 21.561 48.325 34.134-1.088 12.574-24.487 17.677-52.262 11.399-27.776-6.277-49.413-21.56-48.325-34.133" style="fill:#ffde00"/><path style="fill:#2b2b2a" d="m22.198 54.037 0.01-18.451c0.002-4.493-0.489-5.78-0.916-6.399-0.71-1.029-3.09-1.508-5.638-1.508h-1.877l-0.017 33.268h1.877c1.814 0 3.867-0.168 4.613-0.528 0.847-0.409 1.423-1.094 1.664-1.982 0.122-0.447 0.283-1.39 0.284-4.4m11.753 5.518c-1.116 2.223-3.115 4.047-5.94 5.421-2.905 1.412-6.679 2.128-11.216 2.128l-4.893-0.06h-10.073l0.022-45.477h16.139c3.528 0 6.483 0.403 8.782 1.223 2.243 0.802 4.114 2.014 5.562 3.602 1.454 1.596 2.384 3.087 2.762 4.432 0.4 1.425 0.603 3.533 0.601 6.267l-0.001 2.212-0.003 5.412-0.002 4.933c-0.002 4.277-0.588 7.61-1.74 9.907m151.46-38.06h10.97v39.534h-10.97v-39.534zm-15.553 0h10.97v39.534h-10.97v-39.534zm-20.444 20.953v2.474c0 2.693 0.198 3.475 0.39 3.882 0.361 0.768 1.165 1.158 2.39 1.158 1.405 0 1.971-0.809 2.184-1.293 0.177-0.403 0.412-1.228 0.412-3.747v-2.474-0.881h-0.882-3.612-0.882v0.881zm6.049-12.167c0-1.873-0.184-3.088-0.58-3.825-0.331-0.612-1.061-1.342-2.659-1.342-1.35 0-1.988 0.594-2.286 1.09-0.362 0.602-0.524 1.655-0.524 3.413v7.322 0.881h0.882 15.127v3.608c0 3.127-0.428 5.564-1.269 7.244-0.815 1.626-2.277 2.96-4.342 3.964-2.124 1.033-4.882 1.556-8.2 1.556-2.706 0-5.125-0.436-7.191-1.296-1.987-0.829-3.429-2.022-4.283-3.546-0.881-1.567-1.326-3.778-1.326-6.57v-9.872c0-2.412 0.202-4.256 0.599-5.479 0.383-1.176 1.087-2.275 2.092-3.267 1.006-0.992 2.457-1.792 4.313-2.376 1.905-0.599 4.143-0.903 6.653-0.903 2.579 0 4.74 0.305 6.422 0.905 1.641 0.586 3.009 1.473 4.068 2.633 1.064 1.168 1.745 2.258 2.022 3.242 0.293 1.041 0.442 2.583 0.442 4.582v1.618h-9.96v-3.582zm-26.239 19.31-1.294-2.561v6.551h-10.468v-32.086h10.602v12.485c0 3.39 0.131 5.522 0.398 6.516 0.314 1.165 1.131 2.073 2.428 2.696 1.043 0.501 2.517 0.777 4.49 0.839v10.058c-2.65-0.4-4.673-1.873-6.156-4.498m-16.455 0.8252c-0.327 1.065-1.054 1.936-2.223 2.659-1.199 0.741-2.794 1.117-4.739 1.117-1.553 0-2.902-0.355-4.104-0.844-3.339-1.358-4.554-2.356-4.554-2.356v2.588h-10.601v-32.085h10.602v21.999c0 3.537 0.212 4.542 0.395 5.021 0.206 0.54 0.802 1.447 2.476 1.447 1.632 0 2.179-0.845 2.361-1.349 0.152-0.424 0.327-1.324 0.327-4.558v-22.56h10.602v22.84c0 2.857-0.182 4.902-0.542 6.081m-41.525 6.3035h10.97v4.31h-10.97v-4.31zm0-35.224h10.97v32.085h-10.97v-32.085zm-14.936 32.085v-21.896c0-3.813-0.164-4.786-0.307-5.208-0.212-0.621-0.813-1.362-2.472-1.362-1.561 0-2.165 0.707-2.397 1.298-0.174 0.442-0.352 1.383-0.352 5.017v22.151h-10.602v-21.948c0-2.856 0.068-4.774 0.204-5.7 0.124-0.848 0.445-1.678 0.956-2.469 0.484-0.751 1.266-1.37 2.325-1.84 1.106-0.491 2.542-0.74 4.264-0.74 1.497 0 2.809 0.316 3.967 0.775 2.554 1.015 4.376 3.054 4.376 3.054v-3.217h10.641v32.085h-10.603z"/><path style="fill:#e41f25" d="m20.79 55.044 0.009-18.45c0.003-4.493-0.488-5.78-0.915-6.399-0.71-1.029-3.09-1.509-5.638-1.509h-1.877l-0.017 33.269h1.877c1.813 0 3.867-0.168 4.613-0.528 0.847-0.41 1.422-1.095 1.664-1.983 0.121-0.446 0.282-1.389 0.284-4.4m11.753 5.518c-1.117 2.224-3.115 4.047-5.941 5.422-2.905 1.412-6.678 2.098-11.215 2.098h-14.967l0.023-45.508h16.139c3.528 0 6.482 0.404 8.782 1.224 2.243 0.802 4.114 2.014 5.562 3.602 1.454 1.595 2.384 3.086 2.762 4.432 0.4 1.425 0.602 3.533 0.601 6.267l-0.001 2.212-0.003 5.411-0.002 4.933c-0.003 4.278-0.588 7.611-1.74 9.907m151.55-37.994h10.97v39.533h-10.97v-39.533zm-15.554 0h10.97v39.533h-10.97v-39.533zm-20.444 20.952v2.475c0 2.693 0.197 3.474 0.39 3.881 0.361 0.769 1.165 1.158 2.39 1.158 1.405 0 1.971-0.809 2.184-1.293 0.177-0.402 0.412-1.228 0.412-3.746v-2.475-0.881h-0.883-3.611-0.882v0.881zm6.049-12.167c0-1.873-0.184-3.088-0.581-3.823-0.33-0.614-1.06-1.343-2.657-1.343-1.351 0-1.989 0.593-2.287 1.089-0.362 0.603-0.524 1.656-0.524 3.414v7.321 0.881h0.882 15.126v3.608c0 3.127-0.426 5.565-1.268 7.244-0.816 1.626-2.277 2.96-4.342 3.964-2.124 1.033-4.883 1.557-8.2 1.557-2.707 0-5.126-0.436-7.191-1.297-1.988-0.829-3.429-2.022-4.284-3.546-0.88-1.567-1.325-3.777-1.325-6.57v-9.872c0-2.412 0.201-4.255 0.599-5.479 0.382-1.177 1.086-2.275 2.092-3.267 1.006-0.993 2.456-1.792 4.312-2.375 1.906-0.6 4.144-0.903 6.654-0.903 2.579 0 4.74 0.304 6.422 0.905 1.64 0.586 3.009 1.472 4.068 2.633 1.064 1.167 1.745 2.257 2.022 3.241 0.293 1.042 0.441 2.584 0.441 4.583v1.618h-9.959v-3.583zm-26.239 19.31-1.294-2.561v6.551h-10.468v-32.085h10.602v12.484c0 3.391 0.13 5.522 0.398 6.517 0.314 1.165 1.13 2.071 2.428 2.695 1.043 0.501 2.517 0.778 4.49 0.839v10.059c-2.65-0.4-4.674-1.873-6.156-4.499m-16.455 0.8256c-0.326 1.065-1.054 1.935-2.222 2.659-1.2 0.741-2.795 1.118-4.74 1.118-1.553 0-2.902-0.356-4.103-0.845-3.34-1.359-4.554-3.783-4.554-3.783v4.016h-10.602v-32.085h10.603v21.998c0 3.537 0.211 4.541 0.394 5.02 0.206 0.541 0.802 1.448 2.477 1.448 1.631 0 2.178-0.845 2.36-1.349 0.153-0.424 0.327-1.325 0.327-4.558v-22.559h10.603v22.84c0 2.856-0.183 4.901-0.543 6.08m-41.524 6.3038h10.97v4.309h-10.97v-4.309zm0-35.224h10.97v32.085h-10.97v-32.085zm-14.936 32.085v-21.897c0-3.813-0.163-4.785-0.307-5.206-0.212-0.623-0.813-1.363-2.472-1.363-1.561 0-2.165 0.706-2.397 1.298-0.174 0.441-0.352 1.383-0.352 5.016v22.152h-10.602v-21.948c0-2.856 0.069-4.774 0.204-5.701 0.124-0.848 0.446-1.678 0.956-2.468 0.484-0.751 1.266-1.369 2.325-1.84 1.107-0.491 2.542-0.74 4.265-0.74 1.497 0 2.808 0.315 3.967 0.776 2.554 1.014 4.376 3.053 4.376 3.053v-3.217h10.64v32.085h-10.603z"/><path style="stroke:#e41f25;stroke-width:0.84;display:none;fill:none" d="m20.79 55.044 0.009-18.45c0.003-4.493-0.488-5.78-0.915-6.399-0.71-1.029-3.09-1.509-5.638-1.509h-1.877l-0.017 33.269h1.877c1.813 0 3.867-0.168 4.613-0.528 0.847-0.41 1.422-1.095 1.664-1.983 0.121-0.446 0.282-1.389 0.284-4.4zm11.753 5.518c-1.117 2.224-3.115 4.047-5.941 5.422-2.905 1.412-6.678 2.098-11.215 2.098h-14.967l0.023-45.508h16.139c3.528 0 6.482 0.404 8.782 1.224 2.243 0.802 4.114 2.014 5.562 3.602 1.454 1.595 2.384 3.086 2.762 4.432 0.4 1.425 0.602 3.533 0.601 6.267l-0.001 2.212-0.003 5.411-0.002 4.933c-0.003 4.278-0.588 7.611-1.74 9.907zm151.13-38.414v0.41992 39.953h11.809v-40.373h-11.809zm0.83984 0.83984h10.129v38.693h-10.129v-38.693zm-15.97-0.42h10.97v39.533h-10.97v-39.533zm-20.444 20.952v2.475c0 2.693 0.197 3.474 0.39 3.881 0.361 0.769 1.165 1.158 2.39 1.158 1.405 0 1.971-0.809 2.184-1.293 0.177-0.402 0.412-1.228 0.412-3.746v-2.475-0.881h-0.883-3.611-0.882v0.881zm6.049-12.167c0-1.873-0.184-3.088-0.581-3.823-0.33-0.614-1.06-1.343-2.657-1.343-1.351 0-1.989 0.593-2.287 1.089-0.362 0.603-0.524 1.656-0.524 3.414v7.321 0.881h0.882 15.126v3.608c0 3.127-0.426 5.565-1.268 7.244-0.816 1.626-2.277 2.96-4.342 3.964-2.124 1.033-4.883 1.557-8.2 1.557-2.707 0-5.126-0.436-7.191-1.297-1.988-0.829-3.429-2.022-4.284-3.546-0.88-1.567-1.325-3.777-1.325-6.57v-9.872c0-2.412 0.201-4.255 0.599-5.479 0.382-1.177 1.086-2.275 2.092-3.267 1.006-0.993 2.456-1.792 4.312-2.375 1.906-0.6 4.144-0.903 6.654-0.903 2.579 0 4.74 0.304 6.422 0.905 1.64 0.586 3.009 1.472 4.068 2.633 1.064 1.167 1.745 2.257 2.022 3.241 0.293 1.042 0.441 2.584 0.441 4.583v1.618h-9.959v-3.583zm-26.239 19.31-1.294-2.561v6.551h-10.468v-32.085h10.602v12.484c0 3.391 0.13 5.522 0.398 6.517 0.314 1.165 1.13 2.071 2.428 2.695 1.043 0.501 2.517 0.778 4.49 0.839v10.059c-2.65-0.4-4.674-1.873-6.156-4.499zm-16.455 0.8256c-0.326 1.065-1.054 1.935-2.222 2.659-1.2 0.741-2.795 1.118-4.74 1.118-1.553 0-2.902-0.356-4.103-0.845-3.34-1.359-4.554-3.783-4.554-3.783v4.016h-10.602v-32.085h10.603v21.998c0 3.537 0.211 4.541 0.394 5.02 0.206 0.541 0.802 1.448 2.477 1.448 1.631 0 2.178-0.845 2.36-1.349 0.153-0.424 0.327-1.325 0.327-4.558v-22.559h10.603v22.84c0 2.856-0.183 4.901-0.543 6.08zm-41.524 6.3038h10.97v4.309h-10.97v-4.309zm0-35.224h10.97v32.085h-10.97v-32.085zm-14.936 32.085v-21.897c0-3.813-0.163-4.785-0.307-5.206-0.212-0.623-0.813-1.363-2.472-1.363-1.561 0-2.165 0.706-2.397 1.298-0.174 0.441-0.352 1.383-0.352 5.016v22.152h-10.602v-21.948c0-2.856 0.069-4.774 0.204-5.701 0.124-0.848 0.446-1.678 0.956-2.468 0.484-0.751 1.266-1.369 2.325-1.84 1.107-0.491 2.542-0.74 4.265-0.74 1.497 0 2.808 0.315 3.967 0.776 2.554 1.014 4.376 3.053 4.376 3.053v-3.217h10.64v32.085h-10.603z"/><path style="fill:#2b2b2a" d="m123.42 13.058c0.628 0 1.884 0.187 1.884 1.179 0 0.726-0.859 1.101-1.934 1.101h-1.223l-0.033-2.28h1.306zm-3.405 3.426h3.62c2.76 0 3.884-0.991 3.884-2.203 0-0.971-0.876-1.663-2.215-1.984l3.256-2.843-1.885-0.749-3.173 2.942c-0.198 0.188-0.446 0.265-0.76 0.265h-0.661l-0.016-3.052h-2.166l0.116 7.624zm-10.729-1.4763h-0.034l-1.437-2.975h2.793l-1.322 2.975zm-3.372-6.302-1.967 0.396 4.397 7.383h1.95l4.082-7.383-2.066-0.396-1.124 2.181h-3.983l-1.289-2.181zm-11.623 6.302h-0.033l-1.438-2.975h2.793l-1.322 2.975zm-3.372-6.302-1.966 0.396 4.396 7.383h1.951l4.082-7.383-2.066-0.396-1.124 2.181h-3.983l-1.29-2.181zm-16.811 7.5364 1.967 0.396 5.338-5.839h0.033l-0.132 5.685h2.116l-0.099-7.382-2.133-0.397-5.206 5.807-0.033-0.023 0.166-5.629h-2.116l0.099 7.382zm-12.217 0.2422h6.115v-1.212h-3.999l-0.033-1.962h3.966v-1.145h-3.983l-0.016-2.094h4.065v-1.212h-6.231l0.116 7.625zm-12.152-6.115c0.529-0.243 1.388-0.518 2.016-0.518 1.173 0 1.835 0.497 1.835 1.102-0.017 1.521-4.694 0.87-4.694 3.471 0 1.245 1.52 2.215 3.818 2.215 1.14 0 2.247-0.265 3.223-0.64l-0.893-1.013c-0.694 0.253-1.339 0.507-2.165 0.507-0.958 0-1.868-0.342-1.868-1.025 0-1.498 4.793-1.025 4.793-3.46 0-1.3-1.57-2.303-3.784-2.303-1.108 0-2.149 0.21-3.108 0.584l0.827 1.08zm-12.233 0c0.529-0.243 1.388-0.518 2.016-0.518 1.173 0 1.835 0.497 1.835 1.102-0.017 1.521-4.694 0.87-4.694 3.471 0 1.245 1.52 2.215 3.818 2.215 1.14 0 2.248-0.265 3.223-0.64l-0.893-1.013c-0.694 0.253-1.339 0.507-2.165 0.507-0.958 0-1.868-0.342-1.868-1.025 0-1.498 4.793-1.025 4.793-3.46 0-1.3-1.569-2.303-3.785-2.303-1.107 0-2.148 0.21-3.107 0.584l0.827 1.08zm-10.812 4.6387h-0.033l-1.438-2.975h2.793l-1.322 2.975zm-3.372-6.302-1.967 0.396 4.397 7.383h1.95l4.082-7.383-2.066-0.396-1.124 2.181h-3.982l-1.29-2.181zm-21.723 7.5803 2.115 0.353 2.149-6.061h0.033l2.579 5.906h2.23l2.249-5.906h0.033l2.495 6.061 2.05-0.364-3.521-7.415h-2.247l-2.232 5.961h-0.032l-2.53-5.961h-2.214l-3.157 7.426z"/><path d="m161.67 26.911c0.047-0.031 0.077-0.074 0.132-0.104 0.292-0.207 0.521-0.45 0.829-0.638 0.083-0.068 0.174-0.123 0.259-0.187 0.072-0.088 0.211-0.13 0.292-0.217 0.161-0.093 0.283-0.219 0.44-0.318 0.273-0.214 0.591-0.417 0.836-0.648 0.104-0.076 0.185-0.172 0.3-0.235-0.064 0.064-0.119 0.148-0.177 0.219-0.587 0.612-1.123 1.243-1.854 1.778-0.214 0.182-0.466 0.341-0.706 0.505-0.269 0.177-0.541 0.335-0.842 0.462-0.083 0.028-0.147 0.083-0.243 0.078l0.168-0.21c0.176-0.164 0.359-0.331 0.566-0.485" style="fill:#2b2b2a"/><path d="m161.67 26.911c0.047-0.031 0.077-0.074 0.132-0.104 0.292-0.207 0.521-0.45 0.829-0.638 0.083-0.068 0.174-0.123 0.259-0.187 0.072-0.088 0.211-0.13 0.292-0.217 0.161-0.093 0.283-0.219 0.44-0.318 0.273-0.214 0.591-0.417 0.836-0.648 0.104-0.076 0.185-0.172 0.3-0.235-0.064 0.064-0.119 0.148-0.177 0.219-0.587 0.612-1.123 1.243-1.854 1.778-0.214 0.182-0.466 0.341-0.706 0.505-0.269 0.177-0.541 0.335-0.842 0.462-0.083 0.028-0.147 0.083-0.243 0.078l0.168-0.21c0.176-0.164 0.359-0.331 0.566-0.485z" style="stroke:#2b2b2a;stroke-width:0.84;fill:none"/><path d="m161.28 24.197c0.138-0.014 0.258-0.079 0.383-0.136 0.106-0.029 0.207-0.044 0.299-0.102l0.032 0.005c-0.247 0.141-0.501 0.268-0.744 0.413-0.047 0.032-0.099 0.055-0.154 0.076l-0.369 0.183c-0.355 0.201-0.747 0.326-1.133 0.453-0.042 0.008-0.072-0.012-0.117 0.004-0.023-0.004-0.036-0.028-0.034-0.034 0.338-0.233 0.746-0.428 1.152-0.608 0.217-0.085 0.453-0.168 0.685-0.254" style="fill:#2b2b2a"/><path d="m161.28 24.197c0.138-0.014 0.258-0.079 0.383-0.136 0.106-0.029 0.207-0.044 0.299-0.102l0.032 0.005c-0.247 0.141-0.501 0.268-0.744 0.413-0.047 0.032-0.099 0.055-0.154 0.076l-0.369 0.183c-0.355 0.201-0.747 0.326-1.133 0.453-0.042 0.008-0.072-0.012-0.117 0.004-0.023-0.004-0.036-0.028-0.034-0.034 0.338-0.233 0.746-0.428 1.152-0.608 0.217-0.085 0.453-0.168 0.685-0.254z" style="stroke:#2b2b2a;stroke-width:0.84;fill:none"/><path d="m186.22 1.5351c-0.133 0.103-0.162 0.23-0.243 0.352-0.084 0.047-0.123 0.133-0.204 0.204-0.034 0.016-0.079 0.002-0.105-0.014-0.064-0.086-0.027-0.21 0.037-0.291 0.023-0.072 0.142-0.122 0.139-0.197 0.285-0.351 0.256-0.778 0.602-1.104 0.113-0.007 0.245-0.12 0.336-0.031 0.124 0.087 0.123 0.243 0.111 0.37-0.187 0.252-0.407 0.494-0.673 0.711" style="fill:#2b2b2a"/><path d="m186.22 1.5351c-0.133 0.103-0.162 0.23-0.243 0.352-0.084 0.047-0.123 0.133-0.204 0.204-0.034 0.016-0.079 0.002-0.105-0.014-0.064-0.086-0.027-0.21 0.037-0.291 0.023-0.072 0.142-0.122 0.139-0.197 0.285-0.351 0.256-0.778 0.602-1.104 0.113-0.007 0.245-0.12 0.336-0.031 0.124 0.087 0.123 0.243 0.111 0.37-0.187 0.252-0.407 0.494-0.673 0.711z" style="stroke:#2b2b2a;stroke-width:0.84;fill:none"/><path d="m173.57 2.771c0 0.074-0.016 0.166 0.039 0.216-0.006 0.214 0.273 0.348 0.219 0.566l-0.143-0.039c-0.069-0.127-0.148-0.253-0.229-0.372-0.173-0.404-0.77-0.619-0.758-1.082 0.026-0.119 0.077-0.217 0.213-0.271 0.107-0.037 0.222-0.029 0.3 0.024 0.393 0.189 0.397 0.598 0.359 0.958" style="fill:#2b2b2a"/><path d="m173.57 2.771c0 0.074-0.016 0.166 0.039 0.216-0.006 0.214 0.273 0.348 0.219 0.566l-0.143-0.039c-0.069-0.127-0.148-0.253-0.229-0.372-0.173-0.404-0.77-0.619-0.758-1.082 0.026-0.119 0.077-0.217 0.213-0.271 0.107-0.037 0.222-0.029 0.3 0.024 0.393 0.189 0.397 0.598 0.359 0.958z" style="stroke:#2b2b2a;stroke-width:0.84;fill:none"/><path d="m152.18 18.626c-0.106-0.054-0.171 0.074-0.28 0.056-1.783 0.261-3.549 0.387-5.335 0.442-1.222 0.004-2.543-0.03-3.661-0.272-0.134-0.037-0.261-0.122-0.195-0.248 0.059-0.063 0.152-0.127 0.261-0.179 0.789-0.176 1.631-0.147 2.443-0.143 0.326-0.004 0.62 0.033 0.939 0.009 0.37 0.056 0.767 0.024 1.149 0.061 1.342 0.076 2.705 0.185 4.034 0.237 0.222-0.073 0.343 0.062 0.553 0.021 0.062-0.02 0.122-0.015 0.18-0.009-0.02 0.024-0.054 0.024-0.088 0.025" style="fill:#2b2b2a"/><path d="m152.18 18.626c-0.106-0.054-0.171 0.074-0.28 0.056-1.783 0.261-3.549 0.387-5.335 0.442-1.222 0.004-2.543-0.03-3.661-0.272-0.134-0.037-0.261-0.122-0.195-0.248 0.059-0.063 0.152-0.127 0.261-0.179 0.789-0.176 1.631-0.147 2.443-0.143 0.326-0.004 0.62 0.033 0.939 0.009 0.37 0.056 0.767 0.024 1.149 0.061 1.342 0.076 2.705 0.185 4.034 0.237 0.222-0.073 0.343 0.062 0.553 0.021 0.062-0.02 0.122-0.015 0.18-0.009-0.02 0.024-0.054 0.024-0.088 0.025z" style="stroke:#2b2b2a;stroke-width:0.84;fill:none"/><path d="m148.64 15.138c-0.329-0.039-0.628-0.108-0.947-0.167-0.731-0.117-1.461-0.236-2.156-0.437-0.202-0.116-0.514-0.141-0.61-0.339-0.051-0.092-0.006-0.194 0.115-0.265 0.183-0.047 0.415-0.045 0.601-0.023 0.503 0.092 0.993 0.215 1.467 0.325 1.203 0.323 2.381 0.653 3.411 1.21 0.098 0.035 0.07 0.136 0.187 0.158l-0.085 0.072c-0.643-0.202-1.268-0.428-1.983-0.534" style="fill:#2b2b2a"/><path d="m148.64 15.138c-0.329-0.039-0.628-0.108-0.947-0.167-0.731-0.117-1.461-0.236-2.156-0.437-0.202-0.116-0.514-0.141-0.61-0.339-0.051-0.092-0.006-0.194 0.115-0.265 0.183-0.047 0.415-0.045 0.601-0.023 0.503 0.092 0.993 0.215 1.467 0.325 1.203 0.323 2.381 0.653 3.411 1.21 0.098 0.035 0.07 0.136 0.187 0.158l-0.085 0.072c-0.643-0.202-1.268-0.428-1.983-0.534z" style="stroke:#2b2b2a;stroke-width:0.84;fill:none"/><path d="m165.11 5.3178-0.14 0.049c-0.138 0.016-0.087-0.115-0.211-0.114-0.3-0.363-0.859-0.608-1.103-1.001-0.032-0.135-0.083-0.288 0.089-0.387 0.158-0.085 0.323-0.056 0.474-0.012 0.349 0.144 0.482 0.422 0.54 0.719 0.026 0.275 0.172 0.537 0.351 0.746" style="fill:#2b2b2a"/><path d="m165.11 5.3178-0.14 0.049c-0.138 0.016-0.087-0.115-0.211-0.114-0.3-0.363-0.859-0.608-1.103-1.001-0.032-0.135-0.083-0.288 0.089-0.387 0.158-0.085 0.323-0.056 0.474-0.012 0.349 0.144 0.482 0.422 0.54 0.719 0.026 0.275 0.172 0.537 0.351 0.746z" style="stroke:#2b2b2a;stroke-width:0.84;fill:none"/><path d="m152.93 9.706c-0.517-0.215-1.105-0.4-1.355-0.794-0.063-0.113 0.098-0.214 0.179-0.312 0.242-0.035 0.498 0.004 0.719 0.053 0.078 0.036 0.145 0.067 0.225 0.081 0.602 0.242 1.116 0.587 1.651 0.868 0.472 0.332 0.953 0.616 1.432 0.941 0.117 0.087 0.281 0.129 0.361 0.236-0.082 0.024-0.112 0.067-0.19 0.051-0.881-0.501-2.006-0.744-3.022-1.124" style="fill:#2b2b2a"/><path d="m152.93 9.706c-0.517-0.215-1.105-0.4-1.355-0.794-0.063-0.113 0.098-0.214 0.179-0.312 0.242-0.035 0.498 0.004 0.719 0.053 0.078 0.036 0.145 0.067 0.225 0.081 0.602 0.242 1.116 0.587 1.651 0.868 0.472 0.332 0.953 0.616 1.432 0.941 0.117 0.087 0.281 0.129 0.361 0.236-0.082 0.024-0.112 0.067-0.19 0.051-0.881-0.501-2.006-0.744-3.022-1.124z" style="stroke:#2b2b2a;stroke-width:0.84;fill:none"/><path d="m170.58 7.1084c0.001-0.015 0.004-0.028 0.005-0.042-0.003 0.02-0.004 0.035-0.005 0.042m-21.568 13.958c0.036-0.018 0.07-0.023 0.105-0.036-0.039 0.009-0.075 0.022-0.105 0.036m-9.363 3.797c0.011-0.002 0.021-0.006 0.032-0.007-0.005 0-0.016 0.003-0.032 0.007m24.005-15.08c0.01 0.011 0.021 0.02 0.031 0.031-0.003-0.004-0.014-0.016-0.031-0.031m-0.173-0.103c0.025 0.008 0.046 0.02 0.07 0.029-0.005-0.002-0.009-0.005-0.013-0.007-0.023-0.011-0.042-0.018-0.057-0.022m108.42 40.965c-5.431 12.585-30.128 19.435-58.724 16.289l-0.693-0.076 0.006-0.697 0.006-0.835 0.007-0.821 0.819 0.058c23.732 1.652 43.182-3.854 47.299-13.392 1.239-2.872 1.017-5.931-0.663-9.094-4.996-9.413-21.752-18.059-42.687-22.028-0.926-0.176-1.929-0.351-3.128-0.548-1.217 0.33-4.237 0.237-4.73 0.022-0.488-0.222-1.065-0.468-1.714-0.636-0.613-0.177-1.275-0.263-1.994-0.262h-0.055l-0.054-0.007c-0.121-0.017-0.23-0.041-0.328-0.062-0.146-0.032-0.252-0.055-0.353-0.049l-0.069 0.004s-0.069-0.008-0.069-0.008l-0.221-0.026-0.253-0.031-17.706-0.327c-1.035 0.075-2.059 0.167-3.044 0.272 0.039-0.006-2.737 0.433-2.737 0.433l-5.643 0.894c-4.889 1.06-8.902 1.761-10.83 2.098-0.435 0.076-0.818 0.144-0.965 0.172-1.222 0.558-2.468 1.123-3.771 1.509-0.089 0.026-0.169 0.044-0.24 0.06-0.069 0.016-0.287 0.103-0.287 0.103-0.012 0.005-0.86 0.228-0.86 0.228-0.738 0.196-1.5 0.399-2.293 0.534-0.344 0.096-0.693 0.155-1.031 0.207-0.131 0.021-0.255 0.04-0.378 0.062-0.048 0.011-0.996 0.146-1.356 0.198-0.579 0.082-1.179 0.167-1.795 0.221-1.162 0.047-3.025-0.118-3.025-0.118-0.342-0.128-0.726-0.245-0.983-0.135-0.185 0.069-0.267 0.117-0.303 0.143-0.03 0.116-0.07 0.268-0.158 0.424l-0.431 0.353c-0.065 0.022-1.715 0.62-1.715 0.62l-0.558 0.16c-0.644 0.187-1.31 0.381-1.969 0.531-1.806 0.365-3.555 0.696-5.313 0.797 0 0-0.324-0.028-0.376-0.031-0.236-0.013-0.593-0.031-0.904-0.274 0 0-0.297-0.255-0.359-0.514-0.098-0.413 0.131-0.723 0.218-0.839 0.006-0.008 0.013-0.019 0.017-0.023l0.373-0.313c0.432-0.171 0.897-0.323 1.383-0.451 0.106-0.035 0.241-0.067 0.372-0.1 0.146-0.035 3.881-0.888 3.881-0.888 0.133-0.037 0.778-0.191 0.778-0.191v-0.001l0.003-0.002-0.004-0.003c-0.232-0.067-0.402-0.197-0.507-0.396l-0.185-0.349c0.004-0.039 0.178-0.393 0.178-0.393l0.083-0.168 0.15-0.11c0.236-0.176 0.486-0.251 0.686-0.313 0.072-0.022 1.829-0.552 1.829-0.552 0.034-0.009 2.088-0.446 2.088-0.446l0.723-0.151c0.117-0.03 0.527-0.104 0.607-0.122 0.441-0.072 0.771-0.128 1.089-0.219 0 0 0.344-0.062 0.367-0.062 0.55-0.108 1.104-0.207 1.641-0.303 1.165-0.209 2.369-0.424 3.52-0.724 0.051-0.013 0.103-0.031 0.153-0.045l-0.008-0.008c-0.013-0.02-0.002-0.405-0.002-0.405 0.005-0.181 0.072-0.438 0.355-0.646-0.412-0.302-0.471-0.644-0.444-0.889l0.033-0.282 0.206-0.193c0.318-0.299 0.704-0.366 0.958-0.411 0.041-0.006 0.171-0.028 0.171-0.028 0.332-0.041 0.676-0.043 1.01-0.044 0.197-0.002 0.395-0.004 0.585-0.013 0 0-0.217-0.151-0.217-0.398 0-0.248 0.186-0.391 0.186-0.391l-0.049-0.016c-0.36-0.121-1.315-0.441-1.208-1.357l0.04-0.346 0.285-0.198c0.094-0.067 0.296-0.201 0.57-0.232 0.128-0.022 0.236-0.031 0.33-0.036 0.042-0.003 0.241-0.02 0.241-0.02l0.116 0.024c0.799 0.17 1.91 0.021 1.894 0.003-0.077-0.088-0.142-0.165-0.204-0.213 0 0-0.154-0.153-0.181-0.181-0.165-0.175-0.471-0.501-0.455-0.991l0.012-0.396 0.297-0.198c0.072-0.064 0.216-0.176 0.44-0.212l0.197-0.007c0.372 0.036 0.707 0.122 1.002 0.199 0.164 0.042 0.321 0.082 0.475 0.112 0.023 0.004 0.079 0.013 0.134 0.022 0.041 0.007 0.085 0.014 0.13 0.021-0.078-0.096-0.162-0.184-0.227-0.249-0.139-0.098-0.276-0.198-0.402-0.297-0.177-0.138-0.343-0.267-0.519-0.374-0.565-0.365-1.101-0.734-1.621-1.09l-0.53-0.364c-0.439-0.237-0.776-0.488-1.129-0.754l-0.186-0.139c-0.128-0.092-0.249-0.199-0.355-0.293-0.083-0.073-0.313-0.261-0.313-0.261l-0.212-0.201c-0.506-0.476-1.079-1.014-1.244-1.784l-0.051-0.235 0.092-0.221 0.035-0.083c0.138-0.358 0.489-0.604 0.984-0.676l0.108-0.015 0.108 0.014c0.581 0.08 1.071 0.314 1.428 0.485 0.309 0.141 0.608 0.319 0.93 0.553 0.262 0.203 0.52 0.369 0.829 0.535l0.029 0.016 0.027 0.018c0.187 0.122 0.372 0.235 0.553 0.344 0.239 0.145 0.486 0.294 0.742 0.47 0.14 0.093 0.267 0.197 0.378 0.289 0.106 0.087 0.507 0.397 0.507 0.397 0.115 0.101 0.234 0.205 0.333 0.275 0.325 0.26 0.615 0.457 0.922 0.667 0.155 0.106 0.316 0.219 0.478 0.334 0.087 0.037 0.171 0.086 0.247 0.152l0.15 0.105c0.051 0.033 0.444 0.31 0.444 0.31 0.208 0.137 0.406 0.266 0.61 0.391 0.174 0.072 0.333 0.146 0.484 0.219 0.121 0.059 0.236 0.114 0.354 0.166 0.334 0.156 0.601 0.254 0.855 0.316h0.01c0.022-0.081 0.054-0.159 0.099-0.227l0.171-0.263 0.576-0.182-0.001-0.001-1.672-1.061c-0.121-0.12-0.357-0.428-0.357-0.428-0.094-0.114-0.14-0.238-0.167-0.337l-0.23-0.738-0.002-0.007s-0.02-0.403-0.022-0.434c-0.008-0.116-0.02-0.294 0.032-0.505 0.018-0.067 0.027-0.109 0.036-0.161 0.037-0.198 0.099-0.529 0.394-0.835l0.245-0.17c0.484-0.213 1.242 0.091 1.242 0.091 0.313 0.188 0.576 0.397 0.804 0.633l0.391 0.48c0.021 0.028 0.496 0.68 0.587 0.75l0.028-0.009c0.03-0.001 0.311 0.204 0.311 0.204 0.027 0.02 0.315 0.124 0.315 0.124l0.208 0.113c0.026 0.007 0.775 0.061 0.788 0.058 0.086-0.128 0.166-0.247 0.224-0.333 0.004-0.032 0.01-0.067 0.018-0.104-0.005-0.192 0.077-0.577 0.079-0.598l0.038-0.295c0.038-0.304 0.167-0.535 0.397-0.689l0.23-0.155 0.276 0.028c0.27 0.028 0.498 0.116 0.686 0.209l0.637 0.298 0.459 0.137c0.05 0.011 0.511 0.068 0.511 0.068 0.049-0.003 0.146-0.086 0.15-0.117 0.001-0.006 0.001-0.01 0.002-0.015-0.005-0.084-0.001-0.35-0.001-0.35 0 0.002 0.001-0.112 0.001-0.112l-0.001-0.611s0.063-0.481 0.167-0.486c0.02-0.07 0.237-0.641 0.26-0.692 0.118-0.27 1.163-0.989 1.163-0.989 0.461-0.029 0.776 0.121 0.959 0.251 0 0 0.753 1.092 0.892 1.543 0.046 0.152 0.092 0.293 0.144 0.421 0.144-0.11 0.367-0.269 0.686-0.314l0.523 0.114c0.15 0.096 0.524 0.608 0.524 0.608 0.271-0.217 0.55-0.441 0.785-0.666 0.078-0.079 1.633-1.373 1.633-1.373l0.006-0.001 0.516-0.296c0.06-0.032 0.12-0.062 0.19-0.086-0.029 0.01 0.033-0.014 0.033-0.014 0.216-0.086 0.576-0.232 1.002-0.109l0.187 0.082c0.281 0.171 0.431 0.444 0.448 0.811 0 0-0.181 0.896-0.216 0.984-0.032 0.204-0.181 0.598-0.181 0.598-0.031 0.095-0.075 0.185-0.119 0.274 0.161-0.002 0.336 0.022 0.523 0.092l0.386 0.256c0.165-0.058 0.4-0.139 0.4-0.139l0.763-0.261c0.03-0.01 0.257 0.763 0.257 0.763 0.044 0.147 0.062 0.352-0.042 0.576 0 0-0.078 0.406-0.061 0.486 0.002 0.011 0.005 0.023 0.007 0.034 0.07 0.127 0.199 0.24 0.37 0.332-0.057-0.258-0.009-0.527 0.153-0.762l0.123-0.14c0.455-0.403 1.063-0.243 1.599-0.101 0.06 0.016 0.132 0.035 0.202 0.052 0.858-0.662 2.042-0.079 3.11 0.607 5.436 3.492 9.368 2.919 9.407 2.914 7.169-0.731 9.524-0.252 14.682 0.799 1.794 0.364 6.96 1.296 6.96 1.296 0.008-0.001 0.035-0.005 0.035-0.005l2.057-0.335c0.769-0.129 1.564-0.263 2.372-0.381l0.036-0.006c0.08-0.023 0.199-0.049 0.35-0.035 0.397-0.039 0.81 0.041 1.118 0.234l0.305 0.365c0.075 0.187 0.226 0.746-0.319 1.319 21.019 4.526 37.287 13.617 42.763 24.001 2.208 4.19 2.485 8.47 0.798 12.376" style="fill:#2b2b2a"/><path d="m213.27 65.318c23.583 1.648 43.72-3.749 48.081-13.854 5.258-12.18-14.402-26.591-43.913-32.186-1.111-0.211-2.221-0.4-3.326-0.58-0.408 0.285-3.927 0.298-4.366 0.106-0.586-0.266-1.174-0.504-1.83-0.675-0.671-0.195-1.405-0.289-2.191-0.287-0.276-0.039-0.522-0.135-0.834-0.117-0.17-0.02-0.341-0.041-0.513-0.061l-17.782-0.329c-1.05 0.076-2.084 0.168-3.102 0.276-1.964 0.312-5.226 0.824-8.419 1.333-6.563 1.422-3.816 0.24-8.532 1.791-1.75 0.286-4.361 1.611-2.432 0.275-0.334 0.047-0.643 0.145-0.955 0.231-1.227 0.559-2.463 1.124-3.746 1.503-0.203 0.059-0.419 0.082-0.602 0.187-1.003 0.254-1.976 0.547-2.998 0.72-0.442 0.134-0.935 0.186-1.408 0.269-0.061 0.02-0.137 0.015-0.209 0.042-0.971 0.117-1.895 0.282-2.872 0.369-0.919 0.035-1.833 0.031-2.685-0.073-0.442-0.166-1.028-0.351-1.558-0.122-0.323 0.119-0.641 0.292-0.724 0.569-0.031 0.114-0.052 0.231-0.105 0.327-0.223 0.073-0.433 0.196-0.654 0.255-0.331 0.138-0.699 0.218-1.033 0.356-0.821 0.233-1.662 0.492-2.487 0.682-1.697 0.342-3.456 0.679-5.184 0.778-0.25-0.057-0.574 0.005-0.762-0.142-0.194-0.097-0.007-0.251 0.058-0.365 0.43-0.17 0.865-0.309 1.297-0.423 0.275-0.085 0.58-0.134 0.839-0.233 0.1 0.023 0.582-0.161 0.761-0.157 0.198-0.079 0.425-0.12 0.641-0.143 0.03-0.044 0.344-0.169 0.447-0.102 0.502-0.127 1.028-0.236 1.535-0.345 0.267-0.08 0.561-0.11 0.828-0.203 0.052-0.012 1.145-0.307 1.145-0.307 0.257-0.073 0.543-0.11 0.779-0.227 0.394-0.087 0.775-0.201 1.149-0.332 0.299-0.08 0.548-0.228 0.857-0.316 0.275-0.166 0.608-0.235 0.765-0.493-0.026-0.063-0.112-0.131-0.207-0.135-0.564-0.004-1.129 0.075-1.683 0.136-0.345 0.031-0.699 0.137-1.023 0.143-0.528 0.121-1.134 0.113-1.645 0.085-0.054-0.043-0.22-0.009-0.176-0.097 0.196-0.147 0.465-0.183 0.708-0.282 0.484-0.209 1.028-0.318 1.547-0.458 0.914-0.204 1.858-0.395 2.768-0.587 0.213-0.053 0.395-0.075 0.614-0.122 0.392-0.064 1.264-0.298 1.346-0.262 1.776-0.35 3.557-0.6 5.301-1.055 0.238-0.061 0.471-0.14 0.698-0.207 0.244-0.098 0.514-0.146 0.699-0.262 0.202-0.06 0.366-0.15 0.46-0.296-0.001-0.069-0.029-0.119-0.076-0.155-0.313-0.176-0.745-0.075-1.05-0.244-0.031-0.025 0.006-0.05 0.033-0.07 0.415-0.113 0.865-0.159 1.281-0.285 0.196-0.134 0.569-0.185 0.503-0.427-0.05-0.163-0.258-0.227-0.409-0.319-0.449-0.036-0.87-0.09-1.299-0.153-0.096-0.06-0.226-0.121-0.214-0.233 0.184-0.172 0.458-0.19 0.695-0.237 0.971-0.117 2.249 0.141 3.006-0.496 0.106-0.109 0.095-0.228 0.1-0.346-0.151-0.267-0.565-0.303-0.85-0.429l-0.002-0.057c0.275-0.086 0.698-0.043 0.805-0.315 0.022-0.119-0.088-0.204-0.161-0.303-0.346-0.2-0.734-0.324-1.17-0.393-0.313-0.106-0.785-0.242-0.749-0.556 0.064-0.044 0.15-0.114 0.25-0.104 0.14-0.027 0.252-0.024 0.408-0.038 0.843 0.178 1.831 0.281 2.69-0.06l0.211-0.191c0.213-0.298 0.05-0.6-0.119-0.843-0.152-0.159-0.278-0.339-0.458-0.479-0.144-0.166-0.348-0.325-0.34-0.538 0.038-0.026 0.058-0.063 0.101-0.071 0.499 0.048 0.934 0.209 1.403 0.301 0.303 0.045 0.668 0.137 0.987 0.033 0.196-0.053 0.31-0.169 0.385-0.302 0.041-0.499-0.315-0.912-0.676-1.275-0.341-0.225-0.65-0.521-1.034-0.752-0.724-0.468-1.429-0.963-2.136-1.445-0.483-0.254-0.817-0.525-1.267-0.86-0.213-0.153-0.396-0.35-0.593-0.49-0.509-0.491-1.104-0.968-1.239-1.592l0.035-0.082c0.048-0.125 0.236-0.186 0.382-0.207 0.447 0.061 0.837 0.242 1.201 0.416 0.302 0.14 0.558 0.297 0.81 0.481 0.282 0.221 0.578 0.41 0.915 0.591 0.446 0.291 0.855 0.512 1.283 0.803 0.246 0.164 0.445 0.375 0.692 0.527 0.164 0.14 0.342 0.306 0.516 0.429 0.494 0.397 0.989 0.701 1.494 1.068 0.128 0.003 0.355 0.181 0.341 0.238 0.383 0.243 0.723 0.481 1.099 0.706 0.319 0.125 0.584 0.276 0.894 0.409 0.327 0.154 0.669 0.291 1.043 0.375 0.136 0.03 0.838-0.06 0.982-0.045l-0.039-0.394c0.004-0.06-0.116-0.062-0.07-0.134 0.245-0.054 0.471 0.002 0.665-0.069l-0.002 0.02c0.376 0.007 0.783-0.027 1.109-0.242 0.056-0.014-0.007-0.079 0.074-0.083-0.006-0.099 0.014-0.198-0.073-0.272-0.026-0.009-0.015 0.01-0.029 0.011-0.012-0.01-0.025-0.008-0.024-0.028 0.029-0.032-0.238-0.215-0.238-0.215l-0.361-0.242c0.005-0.07-0.176-0.178-0.176-0.178 0.002-0.006-0.013-0.008-0.026-0.011-0.018-0.013-0.076-0.051-0.076-0.051v0.002c-0.043-0.021-0.323-0.207-0.375-0.196 0.007 0.002 0.009 0.007 0.008 0.014l-0.142-0.079c-0.169-0.068-0.296-0.127-0.41-0.19-0.33-0.179-0.593-0.355-0.799-0.537l-0.111-0.083c-0.098-0.084-0.416-0.654-0.416-0.654s-0.041-0.195-0.127-0.225c0.037-0.08-0.045-0.371-0.045-0.371l-0.003-0.03c0.002-0.008 0.002-0.013-0.001-0.017v-0.004c0.013-0.167-0.031-0.303 0.008-0.462 0.072-0.24 0.047-0.446 0.237-0.644 0.181-0.08 0.379-0.013 0.535 0.047 0.284 0.171 0.538 0.371 0.749 0.616 0.079 0.013 0.234 0.281 0.279 0.387 0.05 0.066 0.139 0.129 0.16 0.216 0.061 0.086 1.069 0.956 1.099 0.97l0.003-0.006c0.01 0.006 0.021 0.008 0.03 0.014-0.003 0.022 0.264 0.142 0.373 0.125 0.182 0.098 0.411 0.084 0.636 0.15h0.163c0.195 0.078 0.417-0.014 0.622-0.056 0.336-0.13 0.539-0.382 0.614-0.625l0.004 0.001 0.052-0.121-0.01-0.002c0.066-0.099 0.01-0.225 0.081-0.322-0.064-0.232 0.076-0.477 0.067-0.713 0.046-0.081-0.023-0.245 0.091-0.321 0.255 0.025 0.474 0.15 0.667 0.267 0.052 0.036 0.261 0.103 0.261 0.111 0.103 0.064 0.26 0.123 0.418 0.154 0.003-0.005 0.003-0.008 0.003-0.013 0.02 0.006 0.195 0.05 0.234 0.087 0.281 0.043 0.502 0.148 0.827 0.109 0.109-0.006 0.515-0.03 0.515-0.03 0.067-0.061 0.24-0.101 0.231-0.179 0.047-0.085 0.094-0.332 0.094-0.332s0.045-0.325 0.047-0.361l0.016 0.01c-0.007-0.006-0.011-0.014-0.016-0.022 0.002-0.013 0.003-0.024 0.003-0.024l-0.009 0.001c-0.009-0.057 0.007-0.342 0.007-0.342l0.007-0.305c0.02-0.032 0.004-0.092 0-0.089l-0.001-0.025h0.003c0.038-0.317 0.141-0.61 0.229-0.91 0.169-0.267 0.197-0.642 0.624-0.767 0.176-0.01 0.336 0.02 0.462 0.11 0.543 0.5 0.543 1.191 0.836 1.784 0.082 0.162 0.176 0.343 0.328 0.472 0.17 0.07 0.341-0.058 0.494-0.117 0.235-0.093 0.374-0.317 0.618-0.352 0.13 0.081 0.132 0.239 0.122 0.358 0.041 0.184-0.074 0.467 0.172 0.571 0.036 0.066 0.16 0.03 0.224 0.066 0.261-0.056 0.539-0.18 0.765-0.322 0.316-0.255 0.674-0.533 0.979-0.826 0.145-0.147 0.354-0.238 0.421-0.409 0.225-0.123 0.319-0.306 0.53-0.426 0.106-0.144 0.596-0.463 0.596-0.463l0.005 0.004c0.154-0.069 0.327-0.226 0.506-0.286 0.18-0.07 0.377-0.17 0.574-0.113 0.104 0.062 0.066 0.183 0.087 0.281-0.072 0.044-0.072 0.261-0.069 0.27-0.011 0.026-0.028 0.064-0.052 0.072-0.035 0.099-0.001 0.197-0.089 0.29 0.001 0.178-0.081 0.37-0.149 0.552-0.138 0.412-0.502 0.768-0.549 1.215 0.03 0.115 0.09 0.24 0.233 0.3 0.431-0.006 0.764-0.31 1.17-0.157 0.021 0.067 0.096 0.161 0.077 0.221l0.023 0.048c0.354 0.157 0.835 0.01 1.208-0.13 0.003-0.006 0.001-0.011 0.001-0.015l0.03-0.011c0.019 0.064-0.091 0.116-0.096 0.188-0.16 0.334-0.049 0.652 0.008 0.965 0.219 0.499 0.757 0.851 1.434 0.988 0.318 0.079 0.641 0.09 0.956 0.18 0.083-0.025 0.164-0.029 0.215 0.007l0.024 0.009c-0.216 0.204 2.428 0.129 2.759 0.223 0.2 0.06 0.377-0.076 0.568-0.104 0.98-0.724-4.659-0.709-4.067-1.569 0.238-0.211 1.087 0.186 1.514 0.189 0.204 0.022 0.192-1.022 2.469 0.44 5.797 3.724 9.948 3.025 9.948 3.025 9.596-0.974 10.442 0.28 21.494 2.129 0.058-0.012 0.116-0.023 0.175-0.037 1.496-0.227 2.92-0.495 4.425-0.715 0.092 0.004 0.151-0.058 0.243-0.03 0.262-0.054 0.554-0.002 0.738 0.113 0.12 0.298-0.213 0.598-0.553 0.797-0.508 0.248-1.06 0.376-1.615 0.493 31.07 6.067 51.369 22.025 45.418 35.812-5.36 12.417-30.198 18.869-57.882 15.833l-0.064-0.842z" style="fill:#fff"/><path d="m161.8 26.527c0.047-0.031 0.077-0.074 0.131-0.105 0.293-0.207 0.524-0.449 0.829-0.638 0.084-0.066 0.174-0.123 0.26-0.187 0.072-0.088 0.21-0.129 0.292-0.217 0.161-0.093 0.283-0.218 0.441-0.318 0.272-0.214 0.59-0.417 0.835-0.647 0.104-0.076 0.185-0.172 0.3-0.235-0.064 0.063-0.119 0.148-0.177 0.218-0.587 0.612-1.122 1.244-1.854 1.779-0.214 0.182-0.466 0.341-0.706 0.504-0.268 0.177-0.542 0.336-0.842 0.463-0.083 0.028-0.147 0.081-0.244 0.077l0.169-0.211c0.178-0.162 0.358-0.33 0.566-0.483" style="fill:#00a0e4"/><path d="m161.8 26.527c0.047-0.031 0.077-0.074 0.131-0.105 0.293-0.207 0.524-0.449 0.829-0.638 0.084-0.066 0.174-0.123 0.26-0.187 0.072-0.088 0.21-0.129 0.292-0.217 0.161-0.093 0.283-0.218 0.441-0.318 0.272-0.214 0.59-0.417 0.835-0.647 0.104-0.076 0.185-0.172 0.3-0.235-0.064 0.063-0.119 0.148-0.177 0.218-0.587 0.612-1.122 1.244-1.854 1.779-0.214 0.182-0.466 0.341-0.706 0.504-0.268 0.177-0.542 0.336-0.842 0.463-0.083 0.028-0.147 0.081-0.244 0.077l0.169-0.211c0.178-0.162 0.358-0.33 0.566-0.483z" style="stroke:#00a0e4;stroke-width:0.42;fill:none"/><path d="m161.42 23.813c0.139-0.014 0.26-0.079 0.385-0.137 0.106-0.028 0.206-0.045 0.298-0.102l0.032 0.005c-0.245 0.142-0.501 0.269-0.743 0.413-0.047 0.032-0.099 0.056-0.155 0.076l-0.368 0.183c-0.355 0.201-0.748 0.326-1.133 0.453-0.042 0.009-0.073-0.011-0.117 0.005-0.025-0.004-0.036-0.028-0.034-0.034 0.337-0.233 0.746-0.428 1.152-0.609 0.219-0.085 0.452-0.167 0.683-0.253" style="fill:#00a0e4"/><path d="m161.42 23.813c0.139-0.014 0.26-0.079 0.385-0.137 0.106-0.028 0.206-0.045 0.298-0.102l0.032 0.005c-0.245 0.142-0.501 0.269-0.743 0.413-0.047 0.032-0.099 0.056-0.155 0.076l-0.368 0.183c-0.355 0.201-0.748 0.326-1.133 0.453-0.042 0.009-0.073-0.011-0.117 0.005-0.025-0.004-0.036-0.028-0.034-0.034 0.337-0.233 0.746-0.428 1.152-0.609 0.219-0.085 0.452-0.167 0.683-0.253z" style="stroke:#00a0e4;stroke-width:0.42;fill:none"/><path d="m186.23 2.0258c-0.134 0.102-0.161 0.23-0.242 0.352-0.085 0.047-0.125 0.132-0.206 0.204-0.033 0.016-0.077 0.002-0.104-0.013-0.064-0.087-0.028-0.211 0.038-0.292 0.022-0.072 0.14-0.122 0.138-0.198 0.284-0.348 0.256-0.778 0.603-1.104 0.112-0.006 0.244-0.119 0.334-0.029 0.125 0.085 0.124 0.242 0.112 0.368-0.186 0.252-0.407 0.495-0.673 0.712" style="fill:#00a0e4"/><path d="m186.23 2.0258c-0.134 0.102-0.161 0.23-0.242 0.352-0.085 0.047-0.125 0.132-0.206 0.204-0.033 0.016-0.077 0.002-0.104-0.013-0.064-0.087-0.028-0.211 0.038-0.292 0.022-0.072 0.14-0.122 0.138-0.198 0.284-0.348 0.256-0.778 0.603-1.104 0.112-0.006 0.244-0.119 0.334-0.029 0.125 0.085 0.124 0.242 0.112 0.368-0.186 0.252-0.407 0.495-0.673 0.712z" style="stroke:#00a0e4;stroke-width:0.42;fill:none"/><path d="m173.58 3.2612c0 0.075-0.016 0.166 0.039 0.217-0.007 0.212 0.273 0.345 0.217 0.566l-0.141-0.04c-0.069-0.126-0.148-0.253-0.23-0.372-0.173-0.403-0.769-0.619-0.757-1.081 0.024-0.119 0.077-0.218 0.212-0.271 0.107-0.038 0.223-0.029 0.301 0.023 0.391 0.191 0.396 0.6 0.359 0.958" style="fill:#00a0e4"/><path d="m173.58 3.2612c0 0.075-0.016 0.166 0.039 0.217-0.007 0.212 0.273 0.345 0.217 0.566l-0.141-0.04c-0.069-0.126-0.148-0.253-0.23-0.372-0.173-0.403-0.769-0.619-0.757-1.081 0.024-0.119 0.077-0.218 0.212-0.271 0.107-0.038 0.223-0.029 0.301 0.023 0.391 0.191 0.396 0.6 0.359 0.958z" style="stroke:#00a0e4;stroke-width:0.42;fill:none"/><path d="m152.19 19.117c-0.104-0.055-0.17 0.072-0.28 0.056-1.783 0.261-3.549 0.387-5.333 0.443-1.224 0.002-2.545-0.031-3.662-0.274-0.134-0.036-0.261-0.121-0.196-0.246 0.058-0.064 0.153-0.129 0.261-0.181 0.789-0.176 1.632-0.147 2.444-0.141 0.326-0.006 0.62 0.032 0.938 0.008 0.371 0.056 0.768 0.024 1.149 0.062 1.342 0.075 2.706 0.183 4.034 0.234 0.222-0.072 0.343 0.063 0.552 0.022 0.064-0.02 0.123-0.015 0.183-0.009-0.021 0.025-0.056 0.025-0.09 0.026" style="fill:#00a0e4"/><path d="m152.19 19.117c-0.104-0.055-0.17 0.072-0.28 0.056-1.783 0.261-3.549 0.387-5.333 0.443-1.224 0.002-2.545-0.031-3.662-0.274-0.134-0.036-0.261-0.121-0.196-0.246 0.058-0.064 0.153-0.129 0.261-0.181 0.789-0.176 1.632-0.147 2.444-0.141 0.326-0.006 0.62 0.032 0.938 0.008 0.371 0.056 0.768 0.024 1.149 0.062 1.342 0.075 2.706 0.183 4.034 0.234 0.222-0.072 0.343 0.063 0.552 0.022 0.064-0.02 0.123-0.015 0.183-0.009-0.021 0.025-0.056 0.025-0.09 0.026z" style="stroke:#00a0e4;stroke-width:0.42;fill:none"/><path d="m148.65 15.627c-0.329-0.039-0.629-0.108-0.948-0.166-0.731-0.117-1.46-0.236-2.156-0.436-0.201-0.117-0.514-0.143-0.61-0.341-0.05-0.092-0.005-0.193 0.116-0.264 0.184-0.047 0.414-0.045 0.601-0.022 0.502 0.091 0.993 0.212 1.467 0.323 1.202 0.324 2.38 0.654 3.411 1.211 0.098 0.035 0.07 0.136 0.187 0.158l-0.085 0.071c-0.645-0.201-1.269-0.427-1.983-0.534" style="fill:#00a0e4"/><path d="m148.65 15.627c-0.329-0.039-0.629-0.108-0.948-0.166-0.731-0.117-1.46-0.236-2.156-0.436-0.201-0.117-0.514-0.143-0.61-0.341-0.05-0.092-0.005-0.193 0.116-0.264 0.184-0.047 0.414-0.045 0.601-0.022 0.502 0.091 0.993 0.212 1.467 0.323 1.202 0.324 2.38 0.654 3.411 1.211 0.098 0.035 0.07 0.136 0.187 0.158l-0.085 0.071c-0.645-0.201-1.269-0.427-1.983-0.534z" style="stroke:#00a0e4;stroke-width:0.42;fill:none"/><path d="m165.12 5.8086-0.139 0.049c-0.139 0.016-0.088-0.116-0.211-0.116-0.302-0.362-0.86-0.606-1.106-1-0.029-0.133-0.081-0.288 0.091-0.387 0.159-0.085 0.325-0.054 0.475-0.01 0.35 0.142 0.482 0.42 0.539 0.717 0.026 0.275 0.172 0.537 0.351 0.747" style="fill:#00a0e4"/><path d="m165.12 5.8086-0.139 0.049c-0.139 0.016-0.088-0.116-0.211-0.116-0.302-0.362-0.86-0.606-1.106-1-0.029-0.133-0.081-0.288 0.091-0.387 0.159-0.085 0.325-0.054 0.475-0.01 0.35 0.142 0.482 0.42 0.539 0.717 0.026 0.275 0.172 0.537 0.351 0.747z" style="stroke:#00a0e4;stroke-width:0.42;fill:none"/><path d="m152.94 10.196c-0.518-0.214-1.104-0.399-1.354-0.794-0.065-0.112 0.096-0.214 0.177-0.312 0.243-0.034 0.498 0.005 0.72 0.055 0.078 0.034 0.145 0.066 0.225 0.08 0.602 0.241 1.116 0.587 1.65 0.867 0.473 0.333 0.954 0.617 1.432 0.94 0.119 0.089 0.283 0.13 0.36 0.238-0.081 0.023-0.11 0.067-0.189 0.051-0.88-0.502-2.006-0.744-3.021-1.125" style="fill:#00a0e4"/><path d="m152.94 10.196c-0.518-0.214-1.104-0.399-1.354-0.794-0.065-0.112 0.096-0.214 0.177-0.312 0.243-0.034 0.498 0.005 0.72 0.055 0.078 0.034 0.145 0.066 0.225 0.08 0.602 0.241 1.116 0.587 1.65 0.867 0.473 0.333 0.954 0.617 1.432 0.94 0.119 0.089 0.283 0.13 0.36 0.238-0.081 0.023-0.11 0.067-0.189 0.051-0.88-0.502-2.006-0.744-3.021-1.125z" style="stroke:#00a0e4;stroke-width:0.42;fill:none"/><path d="m219.3 15.102c-0.638-0.234-1.215-0.492-1.898-0.616-0.471-0.102-0.929-0.222-1.415-0.322-0.902-0.168-1.826-0.261-2.76-0.282-0.274 0.04-0.68 0.029-0.82 0.278-0.053 0.137 0.01 0.263 0.096 0.377 0.214 0.225 0.568 0.201 0.867 0.25 1.259 0.037 2.519-0.065 3.729 0.122 0.8 0.112 1.575 0.255 2.343 0.492 0.111-0.004 0.257 0.224 0.338 0.067-0.079-0.175-0.277-0.265-0.48-0.366m-6.101-1.921c-0.46 0.066-0.9-0.026-1.361-0.061-0.518-0.081-1.052-0.083-1.447 0.234-0.038 0.09 0.024 0.174 0.102 0.229 0.088 0.113 0.274 0.057 0.411 0.076 0.729-0.061 1.419-0.329 2.177-0.328-0.005-0.087 0.269-0.063 0.118-0.15m-49.205 6.238c-0.508 0.062-1.029 0.17-1.566 0.206-0.763 0.077-1.559 0.141-2.27 0.41-0.273 0.098-0.587 0.178-0.776 0.398-0.082 0.142 0.013 0.241 0.083 0.347 0.439 0.251 1.053 0.052 1.506-0.103 0.975-0.361 1.917-0.781 2.912-1.084 0.111-0.103 0.463-0.03 0.379-0.222-0.097-0.015-0.176 0.029-0.268 0.048m49.639 45.938c2.63 0.175 5.217 0.263 7.744 0.266 3.816 0.005 7.492-0.184 10.97-0.554 18.068-0.384 32.31-5.564 35.775-14.228 4.836-12.088-13.063-26.556-40.375-33.101-0.159-0.08-0.335-0.131-0.528-0.127-0.939-0.219-1.888-0.432-2.847-0.633-1.099-0.231-2.196-0.439-3.291-0.638-0.398 0.292-3.869 0.266-4.305 0.062-0.582-0.281-1.166-0.537-1.815-0.719-0.665-0.21-1.39-0.315-2.165-0.322-0.275-0.043-0.519-0.146-0.825-0.13-0.168-0.022-0.338-0.047-0.506-0.069l-17.553-0.534c-1.036 0.069-2.056 0.154-3.058 0.254-1.934 0.302-5.147 0.8-8.291 1.294-6.459 1.403-3.208-1.103-8.396 1.765 1.218-1.647-4.286 1.625-2.397 0.259-0.329 0.045-0.633 0.143-0.94 0.229-1.156 0.543-2.321 1.091-3.528 1.469-0.022 0.024-0.046 0.046-0.067 0.07-0.206 0.25-0.364 0.489-0.512 0.732-0.049 0.026-0.094 0.049-0.144 0.076 1.255-1.599-4.362 1.612-2.433 0.277-0.333 0.046-0.642 0.142-0.955 0.229-1.226 0.559-2.461 1.125-3.745 1.504-0.204 0.06-0.419 0.083-0.602 0.186-1.005 0.255-1.979 0.547-2.999 0.72-0.441 0.135-0.935 0.186-1.407 0.269-0.061 0.02-0.137 0.015-0.209 0.041-0.971 0.118-1.895 0.284-2.872 0.37-0.919 0.036-1.834 0.032-2.685-0.072-0.444-0.167-1.029-0.351-1.56-0.123-0.32 0.119-0.64 0.293-0.722 0.569-0.03 0.114-0.053 0.233-0.106 0.327-0.223 0.073-0.433 0.196-0.653 0.256-0.332 0.137-0.701 0.219-1.033 0.356-0.821 0.232-1.662 0.491-2.488 0.681-1.698 0.342-3.454 0.679-5.184 0.779-0.25-0.059-0.574 0.004-0.762-0.144-0.194-0.096-0.006-0.249 0.057-0.363 0.432-0.171 0.866-0.31 1.299-0.424 0.274-0.085 0.579-0.134 0.838-0.233 0.1 0.023 0.176-0.053 0.263-0.067 0.168-0.034 0.32-0.093 0.497-0.09 0.199-0.079 0.426-0.12 0.642-0.142 0.031-0.045 0.131-0.021 0.196-0.066 0.113 0.048 0.148-0.103 0.251-0.035 0.503-0.129 1.028-0.237 1.536-0.347 0.265-0.079 0.559-0.11 0.826-0.202 0.054-0.013 0.111 0.004 0.159-0.041 0.329-0.03 0.634-0.16 0.949-0.228l0.039-0.038c0.256-0.074 0.542-0.111 0.778-0.227 0.381-0.085 0.746-0.193 1.106-0.319-0.074 0.007-0.151 0.017-0.226 0.023 0.069-0.023 0.137-0.043 0.206-0.066 0.299-0.081 0.547-0.229 0.856-0.316 0.276-0.168 0.608-0.235 0.765-0.495-0.013-0.032-0.044-0.065-0.083-0.092-0.019-0.005-0.038-0.011-0.059-0.012-0.564-0.003-1.13 0.076-1.682 0.135-0.347 0.033-0.701 0.138-1.026 0.144-0.527 0.122-1.132 0.114-1.642 0.085-0.054-0.043-0.222-0.009-0.178-0.097 0.196-0.146 0.467-0.183 0.708-0.282 0.485-0.207 1.028-0.318 1.548-0.457 0.912-0.205 1.858-0.396 2.768-0.587 0.211-0.053 0.394-0.076 0.613-0.124 0.392-0.062 0.767-0.124 1.139-0.231 0.072 0.028 0.127-0.066 0.207-0.03 1.737-0.342 3.48-0.591 5.188-1.029 0.063-0.031 0.126-0.06 0.184-0.095 0.19-0.054 0.379-0.113 0.564-0.168 0.243-0.097 0.513-0.146 0.698-0.262 0.202-0.06 0.366-0.15 0.46-0.296 0-0.067-0.027-0.115-0.074-0.152-0.305-0.134-0.702-0.058-0.986-0.217-0.002 0 0-0.002-0.002-0.003-0.021-0.009-0.043-0.016-0.063-0.026-0.032-0.026 0.006-0.051 0.033-0.071 0.414-0.113 0.864-0.158 1.281-0.284 0.182-0.126 0.514-0.18 0.505-0.384 0.013 0 0.025-0.001 0.038 0.004 0.008-0.001 0.016-0.002 0.024-0.004v-0.014c-0.051-0.162-0.258-0.227-0.41-0.318-0.449-0.036-0.869-0.091-1.299-0.152-0.096-0.062-0.227-0.122-0.213-0.235 0.182-0.171 0.458-0.19 0.694-0.237 0.971-0.117 2.25 0.143 3.007-0.496 0.105-0.11 0.093-0.228 0.098-0.345-0.149-0.268-0.85-0.487-0.85-0.487 0.275-0.086 0.697-0.043 0.805-0.314 0.021-0.119-0.088-0.204-0.163-0.304-0.344-0.201-0.732-0.324-1.169-0.392-0.313-0.106-0.784-0.243-0.748-0.556 0.064-0.045 0.149-0.115 0.25-0.105 0.141-0.027 0.25-0.023 0.406-0.038 0.844 0.179 1.833 0.282 2.692-0.059l0.209-0.192c0.213-0.297 0.051-0.601-0.117-0.842-0.153-0.16-0.278-0.339-0.459-0.48-0.143-0.166-0.347-0.325-0.34-0.538 0.037-0.025 0.059-0.063 0.101-0.07 0.499 0.047 0.934 0.208 1.402 0.3 0.304 0.045 0.669 0.139 0.989 0.033 0.195-0.053 0.309-0.167 0.385-0.301 0.039-0.501-0.315-0.914-0.676-1.275-0.342-0.227-0.651-0.522-1.034-0.752-0.725-0.469-1.431-0.963-2.136-1.445-0.485-0.255-0.818-0.524-1.267-0.861-0.213-0.152-0.397-0.35-0.593-0.49-0.51-0.491-1.105-0.969-1.239-1.592l0.034-0.082c0.049-0.126 0.235-0.186 0.383-0.207 0.447 0.061 0.836 0.243 1.2 0.418 0.302 0.138 0.556 0.296 0.81 0.479 0.283 0.22 0.577 0.409 0.915 0.591 0.446 0.292 0.854 0.511 1.282 0.804 0.247 0.165 0.446 0.374 0.694 0.526 0.163 0.14 0.341 0.306 0.516 0.429 0.492 0.398 1.85 1.249 1.835 1.306 0.381 0.243 0.722 0.481 1.099 0.706 0.319 0.126 0.583 0.278 0.894 0.411 0.032 0.014 0.065 0.026 0.097 0.04 0.004 0.001 0.009 0.002 0.014 0.003 0.275 0.122 0.559 0.232 0.867 0.3 0.136 0.03 0.838-0.059 0.983-0.045 0 0-0.093-0.425-0.046-0.498 0.246-0.054 0.664-0.047 0.664-0.047 0.118 0.001 0.377-0.042 0.384-0.055 0.233-0.028 0.653-0.297 0.735-0.302-0.005-0.082-0.063-0.259-0.063-0.259-0.004-0.003-0.267-0.218-0.267-0.218l-0.034-0.027-0.153-0.112-0.006 0.006-0.378-0.313c0.001-0.007-0.015-0.008-0.027-0.012-0.017-0.013-0.448-0.239-0.448-0.239 0.002 0.004 0.006 0.005 0.005 0.008 0 0-0.383-0.181-0.486-0.238-0.332-0.18-0.912-0.621-0.912-0.621-0.099-0.084-0.168-0.178-0.241-0.277 0 0-0.316-0.768-0.337-0.854l-0.012-0.15c0.002-0.006 0.002-0.012-0.002-0.017v-0.003c0.012-0.167-0.03-0.302 0.009-0.463 0.072-0.24 0.047-0.446 0.237-0.643 0.18-0.079 0.379-0.014 0.534 0.047 0.286 0.17 0.539 0.371 0.749 0.615 0.079 0.014 0.02 0.108 0.112 0.112 0.02 0.098 0.121 0.17 0.169 0.275 0.048 0.067 1.174 1.131 1.174 1.131 0.009 0.007 0.086 0.052 0.086 0.052 0.011 0.003 0.021 0.008 0.031 0.011-0.005 0.022 0.264 0.143 0.372 0.127 0.183 0.098 0.968 0.154 0.965 0.143 0.131-0.012 0.265-0.054 0.393-0.08 0.336-0.131 0.616-0.625 0.616-0.625s0.053-0.346 0.125-0.443c-0.037-0.132 0.134-0.578 0.129-0.684 0.048-0.081-0.021-0.244 0.093-0.321 0.253 0.025 0.473 0.149 0.667 0.267 0.05 0.035 0.682 0.257 0.682 0.252 0.02 0.006 0.736 0.235 1.062 0.195 0.107-0.005 0.754-0.13 0.744-0.208 0.048-0.085 0.095-0.331 0.095-0.331l0.062-0.352c-0.008-0.006-0.011-0.014-0.015-0.021 0.001-0.013 0.003-0.025 0.003-0.025l-0.009 0.002c-0.009-0.057 0.017-0.273 0.015-0.273-0.001 0.006-0.003 0.011-0.003 0.017l-0.002-0.02c-0.016-0.008-0.017-0.464-0.047-0.497-0.006 0.001-0.009 0.004-0.013 0.006l-0.002-0.025h0.003c0.037-0.318 0.14-0.61 0.229-0.91 0.074-0.116 0.213-0.329 0.228-0.306 0.087-0.183 0.197-0.355 0.459-0.43 0.177-0.01 0.337 0.02 0.465 0.111 0.54 0.499 0.543 1.189 0.835 1.782 0.077 0.155 0.169 0.323 0.308 0.449 0.154 0.034 0.31-0.071 0.45-0.123 0.235-0.094 0.373-0.318 0.618-0.353 0.017 0.012 0.027 0.026 0.04 0.039 0.008-0.002 0.015-0.007 0.024-0.008 0.128 0.08 0.131 0.238 0.123 0.357 0.04 0.185-0.077 0.468 0.171 0.57 0.002 0.004 0.008 0.006 0.011 0.01 0.05 0.007 0.11 0.004 0.149 0.026 0.26-0.055 0.539-0.18 0.765-0.321 0.316-0.255 0.673-0.533 0.978-0.826 0.145-0.147 0.354-0.239 0.422-0.409 0.224-0.123 0.318-0.306 0.53-0.426 0.104-0.144 0.283-0.203 0.415-0.329l-0.001-0.003 0.044-0.033c0.04-0.007 0.142-0.095 0.142-0.095 0.153-0.068 0.327-0.226 0.506-0.286 0.181-0.07 0.377-0.169 0.574-0.112 0.012 0.008 0.016 0.018 0.025 0.026 0.013 0.003 0.026 0 0.039 0.005 0.103 0.062 0.067 0.182 0.088 0.28-0.071 0.044-0.098 0.334-0.122 0.341-0.035 0.102-0.169 0.661-0.237 0.842-0.139 0.415-0.504 0.769-0.55 1.215 0.027 0.099 0.077 0.204 0.181 0.27 0.425-0.01 0.756-0.309 1.158-0.156 0.002 0.005 0.005 0.011 0.007 0.016 0.019 0.005 0.038 0.007 0.058 0.014 0.021 0.067 0.095 0.161 0.077 0.222l0.018 0.037c0.346 0.118 1.18-0.176 1.18-0.176 0.008 0.027 0.013 0.064 0.033 0.056v-0.015l0.031-0.011c0.019 0.065-0.091 0.116-0.097 0.188-0.159 0.334-0.049 0.652 0.009 0.963 0.162 0.375 0.508 0.659 0.952 0.839 0.131 0.051 0.271 0.091 0.417 0.121 0.318 0.079 3.623 0.325 3.955 0.419 0.199 0.059 0.376-0.076 0.567-0.104 0.98-0.723-4.659-0.709-4.066-1.57 0.238-0.21 1.087 0.186 1.514 0.191 0.203 0.021 0.192-1.023 2.468 0.439 5.797 3.725 9.949 3.026 9.949 3.026 9.595-0.975 10.44 0.279 21.493 2.128 0.058-0.012 0.116-0.023 0.174-0.036 1.497-0.226 2.921-0.496 4.426-0.716 0.092 0.005 0.151-0.059 0.242-0.029 0.263-0.055 0.556-0.004 0.74 0.112 0.119 0.297-0.214 0.597-0.553 0.797-0.509 0.247-1.061 0.376-1.616 0.493 31.07 6.066 51.369 22.025 45.419 35.812-3.789 8.777-17.31 14.571-34.687 16.143-7.111 0.644-14.868 0.581-22.868-0.275" style="fill:#00a0e4"/><path d="m219.3 15.102c-0.638-0.234-1.215-0.492-1.898-0.616-0.471-0.102-0.929-0.222-1.415-0.322-0.902-0.168-1.826-0.261-2.76-0.282-0.274 0.04-0.68 0.029-0.82 0.278-0.053 0.137 0.01 0.263 0.096 0.377 0.214 0.225 0.568 0.201 0.867 0.25 1.259 0.037 2.519-0.065 3.729 0.122 0.8 0.112 1.575 0.255 2.343 0.492 0.111-0.004 0.257 0.224 0.338 0.067-0.079-0.175-0.277-0.265-0.48-0.366zm-6.101-1.921c-0.46 0.066-0.9-0.026-1.361-0.061-0.518-0.081-1.052-0.083-1.447 0.234-0.038 0.09 0.024 0.174 0.102 0.229 0.088 0.113 0.274 0.057 0.411 0.076 0.729-0.061 1.419-0.329 2.177-0.328-0.005-0.087 0.269-0.063 0.118-0.15zm-49.205 6.238c-0.508 0.062-1.029 0.17-1.566 0.206-0.763 0.077-1.559 0.141-2.27 0.41-0.273 0.098-0.587 0.178-0.776 0.398-0.082 0.142 0.013 0.241 0.083 0.347 0.439 0.251 1.053 0.052 1.506-0.103 0.975-0.361 1.917-0.781 2.912-1.084 0.111-0.103 0.463-0.03 0.379-0.222-0.097-0.015-0.176 0.029-0.268 0.048zm49.639 45.938c2.63 0.175 5.217 0.263 7.744 0.266 3.816 0.005 7.492-0.184 10.97-0.554 18.068-0.384 32.31-5.564 35.775-14.228 4.836-12.088-13.063-26.556-40.375-33.101-0.159-0.08-0.335-0.131-0.528-0.127-0.939-0.219-1.888-0.432-2.847-0.633-1.099-0.231-2.196-0.439-3.291-0.638-0.398 0.292-3.869 0.266-4.305 0.062-0.582-0.281-1.166-0.537-1.815-0.719-0.665-0.21-1.39-0.315-2.165-0.322-0.275-0.043-0.519-0.146-0.825-0.13-0.168-0.022-0.338-0.047-0.506-0.069l-17.553-0.534c-1.036 0.069-2.056 0.154-3.058 0.254-1.934 0.302-5.147 0.8-8.291 1.294-6.459 1.403-3.208-1.103-8.396 1.765 1.218-1.647-4.286 1.625-2.397 0.259-0.329 0.045-0.633 0.143-0.94 0.229-1.156 0.543-2.321 1.091-3.528 1.469-0.022 0.024-0.046 0.046-0.067 0.07-0.206 0.25-0.364 0.489-0.512 0.732-0.049 0.026-0.094 0.049-0.144 0.076 1.255-1.599-4.362 1.612-2.433 0.277-0.333 0.046-0.642 0.142-0.955 0.229-1.226 0.559-2.461 1.125-3.745 1.504-0.204 0.06-0.419 0.083-0.602 0.186-1.005 0.255-1.979 0.547-2.999 0.72-0.441 0.135-0.935 0.186-1.407 0.269-0.061 0.02-0.137 0.015-0.209 0.041-0.971 0.118-1.895 0.284-2.872 0.37-0.919 0.036-1.834 0.032-2.685-0.072-0.444-0.167-1.029-0.351-1.56-0.123-0.32 0.119-0.64 0.293-0.722 0.569-0.03 0.114-0.053 0.233-0.106 0.327-0.223 0.073-0.433 0.196-0.653 0.256-0.332 0.137-0.701 0.219-1.033 0.356-0.821 0.232-1.662 0.491-2.488 0.681-1.698 0.342-3.454 0.679-5.184 0.779-0.25-0.059-0.574 0.004-0.762-0.144-0.194-0.096-0.006-0.249 0.057-0.363 0.432-0.171 0.866-0.31 1.299-0.424 0.274-0.085 0.579-0.134 0.838-0.233 0.1 0.023 0.176-0.053 0.263-0.067 0.168-0.034 0.32-0.093 0.497-0.09 0.199-0.079 0.426-0.12 0.642-0.142 0.031-0.045 0.131-0.021 0.196-0.066 0.113 0.048 0.148-0.103 0.251-0.035 0.503-0.129 1.028-0.237 1.536-0.347 0.265-0.079 0.559-0.11 0.826-0.202 0.054-0.013 0.111 0.004 0.159-0.041 0.329-0.03 0.634-0.16 0.949-0.228l0.039-0.038c0.256-0.074 0.542-0.111 0.778-0.227 0.381-0.085 0.746-0.193 1.106-0.319-0.074 0.007-0.151 0.017-0.226 0.023 0.069-0.023 0.137-0.043 0.206-0.066 0.299-0.081 0.547-0.229 0.856-0.316 0.276-0.168 0.608-0.235 0.765-0.495-0.013-0.032-0.044-0.065-0.083-0.092-0.019-0.005-0.038-0.011-0.059-0.012-0.564-0.003-1.13 0.076-1.682 0.135-0.347 0.033-0.701 0.138-1.026 0.144-0.527 0.122-1.132 0.114-1.642 0.085-0.054-0.043-0.222-0.009-0.178-0.097 0.196-0.146 0.467-0.183 0.708-0.282 0.485-0.207 1.028-0.318 1.548-0.457 0.912-0.205 1.858-0.396 2.768-0.587 0.211-0.053 0.394-0.076 0.613-0.124 0.392-0.062 0.767-0.124 1.139-0.231 0.072 0.028 0.127-0.066 0.207-0.03 1.737-0.342 3.48-0.591 5.188-1.029 0.063-0.031 0.126-0.06 0.184-0.095 0.19-0.054 0.379-0.113 0.564-0.168 0.243-0.097 0.513-0.146 0.698-0.262 0.202-0.06 0.366-0.15 0.46-0.296 0-0.067-0.027-0.115-0.074-0.152-0.305-0.134-0.702-0.058-0.986-0.217-0.002 0 0-0.002-0.002-0.003-0.021-0.009-0.043-0.016-0.063-0.026-0.032-0.026 0.006-0.051 0.033-0.071 0.414-0.113 0.864-0.158 1.281-0.284 0.182-0.126 0.514-0.18 0.505-0.384 0.013 0 0.025-0.001 0.038 0.004 0.008-0.001 0.016-0.002 0.024-0.004v-0.014c-0.051-0.162-0.258-0.227-0.41-0.318-0.449-0.036-0.869-0.091-1.299-0.152-0.096-0.062-0.227-0.122-0.213-0.235 0.182-0.171 0.458-0.19 0.694-0.237 0.971-0.117 2.25 0.143 3.007-0.496 0.105-0.11 0.093-0.228 0.098-0.345-0.149-0.268-0.85-0.487-0.85-0.487 0.275-0.086 0.697-0.043 0.805-0.314 0.021-0.119-0.088-0.204-0.163-0.304-0.344-0.201-0.732-0.324-1.169-0.392-0.313-0.106-0.784-0.243-0.748-0.556 0.064-0.045 0.149-0.115 0.25-0.105 0.141-0.027 0.25-0.023 0.406-0.038 0.844 0.179 1.833 0.282 2.692-0.059l0.209-0.192c0.213-0.297 0.051-0.601-0.117-0.842-0.153-0.16-0.278-0.339-0.459-0.48-0.143-0.166-0.347-0.325-0.34-0.538 0.037-0.025 0.059-0.063 0.101-0.07 0.499 0.047 0.934 0.208 1.402 0.3 0.304 0.045 0.669 0.139 0.989 0.033 0.195-0.053 0.309-0.167 0.385-0.301 0.039-0.501-0.315-0.914-0.676-1.275-0.342-0.227-0.651-0.522-1.034-0.752-0.725-0.469-1.431-0.963-2.136-1.445-0.485-0.255-0.818-0.524-1.267-0.861-0.213-0.152-0.397-0.35-0.593-0.49-0.51-0.491-1.105-0.969-1.239-1.592l0.034-0.082c0.049-0.126 0.235-0.186 0.383-0.207 0.447 0.061 0.836 0.243 1.2 0.418 0.302 0.138 0.556 0.296 0.81 0.479 0.283 0.22 0.577 0.409 0.915 0.591 0.446 0.292 0.854 0.511 1.282 0.804 0.247 0.165 0.446 0.374 0.694 0.526 0.163 0.14 0.341 0.306 0.516 0.429 0.492 0.398 1.85 1.249 1.835 1.306 0.381 0.243 0.722 0.481 1.099 0.706 0.319 0.126 0.583 0.278 0.894 0.411 0.032 0.014 0.065 0.026 0.097 0.04 0.004 0.001 0.009 0.002 0.014 0.003 0.275 0.122 0.559 0.232 0.867 0.3 0.136 0.03 0.838-0.059 0.983-0.045 0 0-0.093-0.425-0.046-0.498 0.246-0.054 0.664-0.047 0.664-0.047 0.118 0.001 0.377-0.042 0.384-0.055 0.233-0.028 0.653-0.297 0.735-0.302-0.005-0.082-0.063-0.259-0.063-0.259-0.004-0.003-0.267-0.218-0.267-0.218l-0.034-0.027-0.153-0.112-0.006 0.006-0.378-0.313c0.001-0.007-0.015-0.008-0.027-0.012-0.017-0.013-0.448-0.239-0.448-0.239 0.002 0.004 0.006 0.005 0.005 0.008 0 0-0.383-0.181-0.486-0.238-0.332-0.18-0.912-0.621-0.912-0.621-0.099-0.084-0.168-0.178-0.241-0.277 0 0-0.316-0.768-0.337-0.854l-0.012-0.15c0.002-0.006 0.002-0.012-0.002-0.017v-0.003c0.012-0.167-0.03-0.302 0.009-0.463 0.072-0.24 0.047-0.446 0.237-0.643 0.18-0.079 0.379-0.014 0.534 0.047 0.286 0.17 0.539 0.371 0.749 0.615 0.079 0.014 0.02 0.108 0.112 0.112 0.02 0.098 0.121 0.17 0.169 0.275 0.048 0.067 1.174 1.131 1.174 1.131 0.009 0.007 0.086 0.052 0.086 0.052 0.011 0.003 0.021 0.008 0.031 0.011-0.005 0.022 0.264 0.143 0.372 0.127 0.183 0.098 0.968 0.154 0.965 0.143 0.131-0.012 0.265-0.054 0.393-0.08 0.336-0.131 0.616-0.625 0.616-0.625s0.053-0.346 0.125-0.443c-0.037-0.132 0.134-0.578 0.129-0.684 0.048-0.081-0.021-0.244 0.093-0.321 0.253 0.025 0.473 0.149 0.667 0.267 0.05 0.035 0.682 0.257 0.682 0.252 0.02 0.006 0.736 0.235 1.062 0.195 0.107-0.005 0.754-0.13 0.744-0.208 0.048-0.085 0.095-0.331 0.095-0.331l0.062-0.352c-0.008-0.006-0.011-0.014-0.015-0.021 0.001-0.013 0.003-0.025 0.003-0.025l-0.009 0.002c-0.009-0.057 0.017-0.273 0.015-0.273-0.001 0.006-0.003 0.011-0.003 0.017l-0.002-0.02c-0.016-0.008-0.017-0.464-0.047-0.497-0.006 0.001-0.009 0.004-0.013 0.006l-0.002-0.025h0.003c0.037-0.318 0.14-0.61 0.229-0.91 0.074-0.116 0.213-0.329 0.228-0.306 0.087-0.183 0.197-0.355 0.459-0.43 0.177-0.01 0.337 0.02 0.465 0.111 0.54 0.499 0.543 1.189 0.835 1.782 0.077 0.155 0.169 0.323 0.308 0.449 0.154 0.034 0.31-0.071 0.45-0.123 0.235-0.094 0.373-0.318 0.618-0.353 0.017 0.012 0.027 0.026 0.04 0.039 0.008-0.002 0.015-0.007 0.024-0.008 0.128 0.08 0.131 0.238 0.123 0.357 0.04 0.185-0.077 0.468 0.171 0.57 0.002 0.004 0.008 0.006 0.011 0.01 0.05 0.007 0.11 0.004 0.149 0.026 0.26-0.055 0.539-0.18 0.765-0.321 0.316-0.255 0.673-0.533 0.978-0.826 0.145-0.147 0.354-0.239 0.422-0.409 0.224-0.123 0.318-0.306 0.53-0.426 0.104-0.144 0.283-0.203 0.415-0.329l-0.001-0.003 0.044-0.033c0.04-0.007 0.142-0.095 0.142-0.095 0.153-0.068 0.327-0.226 0.506-0.286 0.181-0.07 0.377-0.169 0.574-0.112 0.012 0.008 0.016 0.018 0.025 0.026 0.013 0.003 0.026 0 0.039 0.005 0.103 0.062 0.067 0.182 0.088 0.28-0.071 0.044-0.098 0.334-0.122 0.341-0.035 0.102-0.169 0.661-0.237 0.842-0.139 0.415-0.504 0.769-0.55 1.215 0.027 0.099 0.077 0.204 0.181 0.27 0.425-0.01 0.756-0.309 1.158-0.156 0.002 0.005 0.005 0.011 0.007 0.016 0.019 0.005 0.038 0.007 0.058 0.014 0.021 0.067 0.095 0.161 0.077 0.222l0.018 0.037c0.346 0.118 1.18-0.176 1.18-0.176 0.008 0.027 0.013 0.064 0.033 0.056v-0.015l0.031-0.011c0.019 0.065-0.091 0.116-0.097 0.188-0.159 0.334-0.049 0.652 0.009 0.963 0.162 0.375 0.508 0.659 0.952 0.839 0.131 0.051 0.271 0.091 0.417 0.121 0.318 0.079 3.623 0.325 3.955 0.419 0.199 0.059 0.376-0.076 0.567-0.104 0.98-0.723-4.659-0.709-4.066-1.57 0.238-0.21 1.087 0.186 1.514 0.191 0.203 0.021 0.192-1.023 2.468 0.439 5.797 3.725 9.949 3.026 9.949 3.026 9.595-0.975 10.44 0.279 21.493 2.128 0.058-0.012 0.116-0.023 0.174-0.036 1.497-0.226 2.921-0.496 4.426-0.716 0.092 0.005 0.151-0.059 0.242-0.029 0.263-0.055 0.556-0.004 0.74 0.112 0.119 0.297-0.214 0.597-0.553 0.797-0.509 0.247-1.061 0.376-1.616 0.493 31.07 6.066 51.369 22.025 45.419 35.812-3.789 8.777-17.31 14.571-34.687 16.143-7.111 0.644-14.868 0.581-22.868-0.275" style="stroke:#00a0e4;stroke-width:0.42;fill:none"/><path d="m203.79 18.31c0.171 0.02 0.342 0.04 0.513 0.061 0.311-0.018 0.557 0.078 0.834 0.117 0.785-0.002 1.52 0.092 2.19 0.286 0.655 0.171 1.266 0.327 1.852 0.593 0.44 0.192 3.936 0.262 4.343-0.023 1.107 0.179 2.216 0.369 3.327 0.58 4.477 0.849 8.722 1.904 12.692 3.119-1.488 0.571-2.953 0.861-4.33 1.101-2.482 0.358-4.987 0.582-6.884 2.303l-1.431-0.147c-3.477 0.113-6.908-0.157-9.707-1.677-1.626-0.983-4.647-3.201-5.64-4.878l0.444-1.468 1.797 0.033z" style="fill:#25a740"/><path d="m262.95 37.872c-2.123 1.857-3.889 4.973-3.191 7.968-3.003-0.671-7.843-1.464-10.248-1.318l-1.361-0.592-1.322 0.661c-1.603-0.09-2.921-1.474-2.718-1.028-1.335 0.155-4.241 0.08-4.306 0.177-1.897-0.984-4.673-2.37-6.931-2.46-4.019-1.677-13.471-3.426-13.31-3.452-0.903 2.459-4.153 3.242-4.832 5.858-0.396 0.866-0.872 2.623-1.673 3.535 0.016 0.036 0.029 0.073 0.048 0.109-1.309 1.609-2.392 3.331-3.251 5.142-2.031 2.146-4.424 4.426-3.522 7.511 0.204 0.828 1.331 1.051 1.311 1.946-2.619 1.922-5.509 4.448-7.697 6.975-3.25-1.476-5.519-5.11-5.744-8.508 1.514-1.833 3.092-3.935 4.178-5.924 0.088 0.245-0.317-2.014 0.113-3.131 0.201-1.095 1.759-2.302 2.821-2.571 0.271-0.066 1.738-6.931 2.596-10.619 0 0 0.579-1.81 0.376-2.816 0.655 0.558-2.07-3.892-2.07-3.892-1.422-3.442-1.738-8.851-0.902-12.63 2.008 3.086 5.598 6.327 9.029 7.154 2.056 0.772 5.741-0.049 7.9 0.782 1.799-1.231 5.309-1.887 7.45-2.571 1.444-0.269 2.61-0.653 3.713-1.172 5.967 1.819 11.305 4.007 15.838 6.437l-0.279 1.103 3.078 1.457c1.119-0.818 2.538-0.874 3.192-0.27 0.881 0.47 2.845 2.025 2.775 1.69 3.541 0.694 7.285 1.924 10.376 3.6l-1.437 0.849z" style="fill:#e41f25"/><path d="m207.65 61.928-0.197-1.235-0.977-1.117s-0.342-0.713-0.272-1.466c0.092-1.004 0.605-2.134 0.648-2.262 0.074-0.222 3.009-3.377 3.009-3.377l1.053-2.21 2.483-3.504 0.903-1.564s0.753-2.684 1.356-3.056c0.602-0.372 2.407-2.385 2.407-2.385l1.43-2.31s0.828 0.15 2.031 0.745c1.204 0.596 6.395 1.342 7.298 1.639 0.903 0.299 2.032 1.044 2.032 1.044s4.442 0.895 5.417 1.341c0.979 0.447 3.387 1.788 4.591 2.759 1.205 0.968 4.591 3.873 4.591 3.873s2.408 0.895 3.687 1.193c1.28 0.299 4.214 1.416 4.742 2.386 0.525 0.968 0.901 3.651 0.373 4.248-0.526 0.595-2.61 3.487-4.115 4.232-1.505 0.744-4.085 1.356-4.085 1.356s-1.356 2.235-2.558 3.354c-1.205 1.117-3.99 3.128-3.99 3.128s-3.681 4.349-4.356 5.019c-0.679 0.672-4.146 2.144-5.35 2.293-1.203 0.15-3.536-0.149-3.986-0.894-0.453-0.745-1.356-3.806-1.356-3.806l-0.98 0.224s0 0.972-0.525 1.419c-0.526 0.448-2.107 1.715-2.483 1.715-0.378 0-2.633-0.447-2.633-0.447l-0.603-1.118s-1.579-0.674-2.032-0.971c-0.45-0.297-1.88-1.866-2.334-2.538-0.45-0.671-1.128-3.13-1.128-3.13l-0.451-1.118s-1.129-0.074-1.579-0.447c-0.453-0.372-1.506-2.087-1.506-2.087l-0.555-0.926z" style="fill:#25a740"/><path d="m234.89 50.013c-3.588-2.504-8.542-4.261-13.146-4.261 0.385 1.833 2.867 4.538 4.74 4.919 0.723 0.178 1.626 0.044 2.37 0-0.136-0.538 3.365 1.096 5.644 0.558 0.271-0.201 0.325-0.815 0.392-1.216" style="fill:#fcd8ba"/><path d="m285.17 45.921c-0.678 1.05-2.019 1.821-3.26 1.731-0.018-0.028-0.051-0.052-0.093-0.074 0.059 0.229 0.105 0.387 0.105 0.387l-0.656 0.849c-0.497 0.67-1.533 0.536-2.211 0.335-0.091-0.201-1.377 0.605-2.234 0.738 0 0-0.227-0.089-0.543 0.068-1.218 1.319-3.093 1.385-4.537 1.878 0-0.156-0.271-0.268-0.271-0.268-0.271 1.743-1.626 3.418-3.252 4.225-0.246 0.067-0.36-0.313-0.608-0.089 0.337 0.715 0.295 1.608 0.068 2.347-0.475 0.761-1.152 1.342-1.964 1.61-0.836 0.178-1.953 0.2-2.541-0.381-0.111-0.379-0.427-1.051-0.111-1.341 1.014-0.536 1.713-1.195 2.255-2.181-0.089-0.201 0.284-0.524 0.171-0.502 0.113-1.296 1.175-2.292-0.114-3.409-0.564-1.117 0-4.102-0.135-3.991-1.444-0.783-3-1.319-4.491-1.99-0.834-0.738-1.48-2.168-1.074-3.129 0.227-0.582 0.927-2.057 1.467-2.348 2.486 0.827 5.012 1.755 7.224 3.187-0.113 0.267 2.587-0.237 4.799-0.392 1.94-0.447 4.774 0.346 6.601-0.168 0.747 0.271 1.303 1.119 1.609 1.986 1.092 0.088 2.42-1.106 3.529-0.98 0.179 0.134 0.335 0.628 0.447 0.784 0.135 0.381-0.023 0.782-0.18 1.118" style="fill:#25a740"/><path d="m220.22 33.915c0.474-0.895 0.315-2.17-0.271-2.952-0.7-0.804-1.928-1.375-2.944-1.42-0.678 0.111-1.58 1.117-1.918 1.677-0.586 1.14-0.136 2.525 0.565 3.465 0.633 0.604 2.152 0.772 3.056 0.572 0.814 0 1.036-0.828 1.512-1.342" style="fill:#ffde00"/><path d="m199.74 68.891s-1.523-1.062-2.145-1.565c-0.621-0.503-1.467-1.732-1.467-1.732l-2.371 3.353-2.144 2.911-5.191 4.473-3.839 4.975s-1.523 0.727-1.467 1.339c0.058 0.617 0 1.12 0.564 1.231 0.564 0.113 2.259-0.223 2.259-0.223h1.832l3.416-0.502s2.426-0.897 2.596-1.008c0.17-0.11 2.935-1.34 2.935-1.34s2.482-0.391 2.764-0.224 2.034 1.007 2.483 1.063c0.452 0.055 2.538-0.111 2.598-0.336 0.054-0.224 0.619-1.397 0.563-1.564-0.056-0.169-0.734-0.896-0.734-0.896l-1.862 0.28s-0.62 0.167-1.126-0.055c-0.511-0.225-1.64-1.119-1.64-1.119l-0.902-2.348-0.51-1.731 3.388-4.982z" style="fill:#25a740"/><path d="m228.59 73.443s3.559-0.479 4.964-2.761c1.658-2.685 2.709-6.709 2.034-8.2-0.848-1.866-1.806-2.236-1.806-2.236l-1.655 0.075-1.655 0.968s-3.387 5.665-3.387 5.888c0 0.224-0.679 2.982-0.679 2.982s0.077 1.493 0.603 2.09c0.529 0.597 1.581 1.194 1.581 1.194" style="fill:#fff"/><path d="m211.66 65.91s3.913 1.491 4.211 1.64c0.302 0.149 2.561 1.788 2.786 2.087 0.228 0.297 0.527 1.418 0.527 1.94 0 0.524 0 1.046-0.527 1.269-0.527 0.225-0.752 0.448-1.429 0.299s-2.106-0.597-2.634-1.194c-0.527-0.598-1.505-1.718-1.505-1.718l-1.053-2.385-0.376-1.938z" style="fill:#fff"/><path d="m193.33 78.926c-1.243 0.2-2.688-0.023-3.793-0.626 0 0.671 0.881 0.649 1.355 0.85 0.789 0.178 1.759 0.178 2.438-0.224" style="fill:#2b2b2a"/><path d="m228.43 72.934c-1.219-0.606-1.445-1.926-1.558-3.136 0.383 0.471 0.903 1.008 1.468 1.255 0.903 0.224 1.941 0.134 2.529-0.717-0.025-0.135 0.066-0.292-0.092-0.359-0.113 0.045-0.204 0.045-0.271 0.158-0.586 0.201-0.991-0.315-1.42-0.649-0.364-0.649-0.045-1.431 0.383-1.924 0.407-0.424 1.037-0.134 1.511-0.066 0.701 0.29 0.678 1.139 1.041 1.608 1.081-1.676 1.872-3.487 1.828-5.633-0.227-1.162-1.356-2.347-2.484-2.615 0.497-0.269 1.105-0.269 1.625-0.492 0.903 0.178 1.671 1.006 2.01 1.833 1.06 2.839 0.09 6.059-1.694 8.363-1.217 1.523-2.844 2.866-4.876 2.374m6.771-4.477c0.566-1.878 0.994-3.935 0.655-6.06-0.246-0.848-0.632-1.721-1.466-2.258 0.315-0.424 0.767-0.043 1.152-0.312-0.542-0.179-1.198-0.112-1.853-0.045-2.37 0.268-4.558 1.297-6.231 3.108l0.432-0.067c-0.205 0.694-0.658 1.407-0.859 2.147-0.656 2.458-1.332 5.366-0.046 7.74 0.7 0.941 1.896 1.231 2.98 1.03 2.393-0.649 4.402-3.045 5.236-5.283" style="fill:#2b2b2a"/><path d="m217.82 63.896c0-0.314-0.362-0.425-0.587-0.536-0.588 0.021-0.858 0.915-1.535 0.536l-0.362-0.314c-0.045 0.247 0.248 0.604 0.54 0.693 0.634 0.202 1.515 0.158 1.944-0.379" style="fill:#2b2b2a"/><path d="m272.97 46.681c-0.364 1.184-0.836 2.571-2.055 3.332 0.022 0.177 0.113 0.245 0.27 0.312 1.106-0.917 1.918-2.191 1.785-3.644" style="fill:#2b2b2a"/><path d="m234.93 45.294c-1.987-0.76-3.792-2.012-6.003-2.258-0.926-0.045-1.808-0.156-2.756-0.112 0.227 0.18 0.677 0.09 0.972 0.269 2.641 0.111 4.944 1.364 7.358 2.191h0.429v-0.09z" style="fill:#2b2b2a"/><path d="m216.1 19.826c0.02-0.482-0.1-0.273-0.523 0.143-0.387-0.003-0.756-0.225-0.951 0.228-0.044 0.276 0.341 0.471 0.625 0.462 0.383-0.068 0.812-0.343 0.849-0.833" style="fill:#2b2b2a"/><path d="m185.49 83.001s-0.524 0.027-0.826 0c-0.303-0.027-0.414-0.11-0.414-0.11l-0.606 0.689s0.083 0.22 0.441 0.137c0.358-0.082 1.405-0.716 1.405-0.716m99.463-38.198c-0.112-0.157-0.202-0.359-0.382-0.492-1.174-0.134-1.919 1.028-3.048 0.759-0.023 0.559 0.113 1.454-0.317 1.99-0.068 0.336 0.409 0.112 0.542 0.314 1.242 0.089 2.349-0.404 3.025-1.453 0.159-0.336 0.316-0.738 0.18-1.118m-9.275 3.174c0.677-0.067 1.375-0.067 1.963-0.381-0.409-0.603 0.158-1.229-0.498-1.675-0.588 0.379-1.263 0.647-1.941 0.603 0.476-0.29 1.039-0.536 1.513-0.961 0-0.403-0.27-0.872 0.112-1.186 0.27 0.381 0.498 0.873 1.017 1.074 0.429-0.201 0.565-0.76 1.037-0.871-0.135 0.804-1.151 1.72-0.384 2.638 0.295 0.401 0.859 0.357 1.31 0.266 0.611-0.178 1.04-0.826 1.083-1.452-0.068-1.119-0.586-2.325-1.692-2.728-1.829 0.515-3.478-0.559-5.419-0.111-2.21 0.156-4.288 0.67-6.229 1.498-0.135-0.402 0.543-0.582 0.655-0.85-2.212-1.43-4.786-2.012-7.27-2.838-0.543 0.29-0.677 1.072-0.902 1.653-0.406 0.961-0.295 2.257 0.542 2.996 1.489 0.671 3.048 1.207 4.492 1.99 0.135-0.112 0.135-0.38 0.382-0.38l0.091 0.112c-0.316 1.095-0.768 2.48-0.202 3.599 1.286 1.117 0.316 2.996 0.202 4.293 0.114-0.023 0.248-0.202 0.339 0-0.541 0.983-1.377 1.922-2.394 2.458-0.315 0.292-0.315 0.761-0.202 1.141 0.587 0.581 1.422 0.76 2.257 0.581 0.813-0.269 1.49-0.85 1.964-1.61 0.225-0.737 0.27-1.632-0.069-2.347 0.25-0.223 0.363 0.157 0.611 0.089 1.626-0.805 2.98-2.482 3.251-4.225l0.272-0.224c0.247 0.135 0 0.335 0 0.492 1.443-0.492 3.317-0.559 4.536-1.878 0.316-0.156 0.271-0.604 0.656-0.604l-0.113 0.537c0.857-0.134 1.489-0.738 2.165-1.229 0.271 0.133-0.021 0.29 0.068 0.491 0.678 0.201 1.716 0.336 2.213-0.335l0.654-0.849-0.7-0.425c-0.563 0.581-1.241 0.827-2.008 0.916-0.677 0.09-1.174-0.67-1.739 0-0.993 0.29-2.166 0.178-2.819 1.162-0.116 0-0.272 0.247-0.363 0 0.406-0.513 0.857-1.228 1.559-1.43m-47.837 0.313c1.378 1.9 3.568 2.839 5.846 2.302 0.272-0.201 0.746-0.178 0.814-0.58-3.589-2.504-7.698-3.98-12.303-3.98 0.384 1.832 2.258 3.533 4.131 3.912 0.723 0.179 1.468 0.045 2.213 0-0.137-0.537-1.017-1.006-0.701-1.654m9.642-5.141c-2.529-1.343-5.396-2.058-8.399-2.103-0.045-0.067-0.135-0.11-0.114-0.223l1.309-0.089c-2.212-0.94-4.785-1.006-7.155-1.61-1.152-0.403-2.393-0.604-3.408-1.342-0.79 2.55-4.222 3.779-4.922 6.327l-0.339 1.386c0.339-0.134 0.745-0.625 1.151-0.849 0.227-0.157 0.565-0.335 0.813-0.335-2.551 2.034-4.447 4.672-5.914 7.355 0.248-0.067 0.405-0.515 0.655-0.424-1.919 2.704-6.164 5.298-3.951 9.009 0.745-1.61 2.257-2.727 3.838-3.376 2.845-2.571 1.671-6.774 4.92-9.166 2.032-1.745 4.359-2.728 7.224-2.415 2.914 0.023 5.555 1.029 8.126 2.035 3.726 1.832 7.09 4.561 10.995 6.014 2.281 0.738 4.671 1.162 6.885 2.078 0.338-0.357 0.496-0.894 0.812-1.184l0.09 0.112c-0.067 1.363-0.902 2.772-2.256 3.219-0.518 0-1.197 0.559-1.469-0.268-0.225-0.201-0.428-0.402-0.496-0.693 0.858 0.268 1.988 0.045 2.552-0.649-1.129-0.246-2.258-0.537-3.364-0.916-6.884-1.633-15.35-2.594-22.327-0.471-3.612 1.88-7.945 2.148-11.963 2.953-1.446 0.781-2.98 2.124-2.866 3.913 0.226 1.385 1.083 2.793 2.437 3.486 0.475 0.18 1.084 0 0.925-0.648 0.294 0.112 0.633 0.491 0.7 0.873 0.045 0.155-0.067 0.335-0.227 0.357 2.462 1.118 5.848 1.207 7.203 4.136 0.45 0.739 0.518 1.791 0.382 2.643-0.179 0.469-0.675 1.03-1.196 1.12 0.113 0.559 0.859 0.893 1.422 0.961 1.469-0.089 3.095-0.649 3.568-2.193-0.249-0.359-0.814-0.381-1.197-0.651-0.136-0.312-0.541-0.223-0.587-0.581l0.113-0.113c0.812 0.18 1.718 0.537 2.594 0.27l0.317-0.696 0.273 0.315c0.134 1.948 1.174 4.052 3.092 4.723 1.175 0.58 2.369 0.089 3.588 0 4.675-1.341 7.338-6.224 9.416-10.136l0.157-0.111c0.337 0.224 0.09 0.604 0 0.849l-0.812 1.677c2.099-0.962 4.423-3.086 5.53-5.21-0.205-0.043-0.452 0.09-0.589-0.111-0.089-0.313 0.272-0.247 0.431-0.38 3.363-0.648 7.089-2.213 8.555-5.723 0.429-1.074 0.181-2.213-0.203-3.22-2.619-3.152-6.773-2.817-10.294-3.868v-0.067l1.624-0.201c-2.55-1.832-4.919-4.314-7.649-5.789m1.622-2.146c-1.354-1.924-3.611-2.416-5.618-3.132-2.957-1.274-6.14-2.369-8.242-5.365-0.09-0.089-0.272-0.022-0.384-0.044-0.653 0.558-0.497 1.43-0.924 2.102-0.565 1.273-1.558 2.437-2.823 3.263 3.635 1.789 8.218 1.23 11.762 3.176 2.258 0.088 4.221 0.892 6.117 1.877 0.317-0.469 0.272-1.319 0.112-1.877m-19.549-10.04c-0.698-0.805-1.646-0.983-2.663-1.028-0.675 0.112-1.175 0.671-1.511 1.229-0.588 1.141-0.16 2.506 0.541 3.444 0.633 0.603 1.489 0.849 2.391 0.648 0.813 0 1.04-0.828 1.514-1.341 0.473-0.895 0.316-2.17-0.272-2.952m-6.028 6.707c0.567 2.527-1.171 4.427-0.857 6.91 0.092 0.759 0.204 1.518 0.542 2.145 1.017-0.737 0.679-2.057 1.13-3.04 0.676-2.616 3.928-3.399 4.83-5.858-2.213 0.357-3.499-1.52-5.192-2.37-0.633 0.537-0.384 1.453-0.453 2.213m5.802-8.965c-1.805-3.51-6.343-1.364-9.143-2.413-3.429-0.828-6.655-3.309-8.665-6.395-0.837 3.779-0.251 8.16 1.172 11.603l1.895 3.421c0.678 0.581 1.152 1.498 1.741 2.146-0.949 0.023-1.401-1.208-2.055-1.767 0.203 1.007 0.654 1.902 0.971 2.84-0.136 0.268-0.408 0.268-0.542 0l-0.271-0.425c-0.858 3.69-1.469 7.468-2.823 10.955 0.249 0.067 0.633 0.022 0.656 0.38-0.203 0.045-0.588 0.089-0.858 0.156-1.063 0.269-2.235 1.253-2.438 2.348-0.43 1.118 0.112 2.304-0.069 3.443-0.383-0.023-0.271-0.447-0.361-0.693-1.083 1.99-2.347 4.001-3.86 5.834 0.226 3.4 1.897 6.843 5.146 8.318 2.19-2.527 4.81-4.606 7.429-6.528 0.022-0.895-1.108-1.118-1.311-1.945-0.903-3.085 1.492-5.366 3.522-7.512 0.857-1.811 1.943-3.533 3.252-5.142-0.746-1.365-1.063-3.109-0.746-4.719 1.039-2.033 1.13-4.514 1.197-6.885 0.067-0.358 0.359-0.692 0.699-0.85 1.536 0.247 2.483 1.901 3.995 2.148 0.542 0.111 1.153 0.089 1.535-0.381 0.341-0.47 0.451-1.185 0.318-1.721-0.768 0.602-1.874 0.872-2.936 0.602-1.127-0.445-2.053-1.631-2.212-2.793-0.022-1.409 0.677-2.661 1.896-3.443 1.04-0.291 2.325-0.224 3.092 0.603 0.16-0.424-0.294-0.804-0.226-1.185m-29.141 44.653c-1.469 0.939-2.687 2.459-3.637 3.869-1.692 1.162-3.227 2.951-4.173 4.716h-0.047v-0.423c-0.474 0.289-0.721 0.759-0.925 1.229 0.09 0.491-0.044 0.916 0.609 0.962 0.7 0.134 1.151-0.38 1.672-0.762 0.18-0.289 0.427-0.602 0.495-0.96-0.112 0-0.339 0.023-0.451-0.111 0.52-0.291 1.128-0.605 1.625-1.006l-0.271-0.27c0.452-0.178 0.993-0.089 1.423-0.267 0.879-0.023 1.533-0.56 2.279-0.917 0.159 0.067 0.429 0.156 0.429 0.379-1.014 0.357-1.897 1.029-3.046 1.075-0.408 0.468-0.905 0.804-1.446 0.96-0.112 0.247-0.271 0.47-0.271 0.759 1.83 0.247 2.866-1.004 4.538-1.251 0.631-0.29 1.241-0.938 1.963-0.693v0.112c-0.926 0.648-1.895 1.141-2.979 1.342-0.474 0.358-0.993 0.625-1.536 0.803 1.289 0.427 2.982 0.225 4.132-0.491-0.113-0.066-0.361-0.066-0.496-0.201 0.428-0.29 1.129-0.133 1.624-0.334 0.792-0.202 1.491-0.627 2.168-1.074-0.677-0.202-1.264-0.805-1.784-1.341 0.497-0.045 0.812 0.536 1.309 0.647 1.422 0.649 3.139 0.335 4.696 0.492v-0.157c0.519 0.068 0.947 0.671 1.467 0.895 0.836 0.336 2.054 0.336 2.823-0.156 0.293-0.425 0.585-0.916 0.429-1.453-0.069-0.358-0.384-0.493-0.701-0.581-0.746-0.158-1.264 0.246-1.851 0.492-0.812-0.358-1.784-0.536-2.484-1.298-1.443-1.296-0.631-3.576-2.166-4.784 0.158-0.111 0.452 0 0.655 0.112 1.016-1.612 2.031-3.248 3.295-4.769-1.331-0.515-2.62-1.676-3.408-2.862-2.145 2.326-3.001 5.571-5.959 7.317m-3.139 10.039c-0.405 0.023-0.745-0.469-1.15-0.38l-0.588 0.536c0.521 0.268 1.197-0.022 1.738-0.156m29.639-10.644c0.859 0.067 1.829 0.271 2.213-0.738 0.317-0.963-0.088-1.905-0.497-2.688h-0.091c0 0.248 0 0.538-0.224 0.649-0.135-0.201-0.18-0.401-0.159-0.649-0.362-0.334-0.723-0.826-1.196-0.693-0.247 0.135-0.517 0.291-0.654 0.581-0.023 0.56 0.204 1.054 0.654 1.344h0.225c0.18 0.314-0.2 0.605-0.45 0.695-1.4-0.135-2.482-1.412-3.184-2.574-0.271-0.65-0.475-1.319-0.428-2.102l-1.153-0.425c0.453 2.639 2.213 5.503 4.944 6.6m68.807-27.101c-0.543 1.318-2.008 2.102-3.363 2.057-0.023 0.536-0.317 0.916-0.701 1.274-0.924 0.716-2.212 0.693-3.25 0.424-0.61 0.605-1.421 0.672-2.168 0.918-1.151 0.96-2.55 1.274-3.904 1.721-1.74 1.096-1.941 3.332-3.953 4.248 0.205 0.849-0.132 1.608-0.495 2.302-0.406 0.828-1.332 1.297-2.122 1.453-1.106 0.046-2.257-0.178-3.025-1.027-0.586-1.767 1.762-2.013 2.483-3.22 0.316-1.074 0.746-2.28 0.34-3.443-0.316-0.402-0.52-0.871-0.611-1.386-0.178-0.984 0.112-1.99 0.181-2.906-3.86-2.079-8.352-2.683-12.847-3.264-1.352-0.223-2.751 1.029-3.676-0.492l-1.197 0.536c-1.152 0.336-1.874-0.648-2.778-1.072-1.082 0.2-2.369 0.267-3.565 0.379 2.639 2.191 5.282 4.628 8.442 5.634 1.468 0.335 2.891 0.737 4.063 1.721 1.425 1.118 1.873 2.84 1.467 4.516-1.196 3.444-5.011 5.612-8.398 6.372-1.805 2.772-4.513 5.724-7.516 7.088-2.392 3.761-6.277 7.942-11.106 6.981-2.167-0.313-3.229-2.571-3.634-4.406-0.16 0.133-0.43-0.045-0.542 0.156-0.09 0.717-0.656 1.254-1.152 1.792-1.083 0.469-2.122 1.319-3.453 0.893-0.95-0.245-1.966-0.759-2.439-1.7-1.758-0.581-3.205-2.194-4.176-3.76-0.609-1.142-0.926-2.394-1.309-3.601-1.513-0.492-2.709-1.9-3.566-3.175-4.222 2.751-8.645 6.998-10.949 11.387 0.97 1.387 0.407 3.42 2.009 4.561 0.79 0.648 2.212 0.625 3.092 0.157 0.723-0.091 1.4 0.067 1.783 0.693 0.227 0.737-0.112 1.385-0.54 1.944-0.473 0.358-0.994 0.605-1.626 0.649-1.512 0.291-2.438-1.118-3.905-1.074-1.332 0.113-2.619-0.335-3.681 0.582-1.602 0.224-2.731 1.521-4.333 1.721-1.377-0.2-2.347 0.536-3.634 0.581-0.722-0.513-1.266 0.292-2.01 0.224-0.697-0.379-1.377 0.471-2.214 0.112-0.427-0.134-0.833-0.537-0.812-1.028 0-0.85 0.746-1.498 1.467-1.834 1.063-1.476 2.169-2.838 3.411-4.181 1.782-2.637 4.649-4.092 6.726-6.376 1.151-1.88 2.529-3.625 3.454-5.591-0.925-1.542-1.761-3.13-1.784-5.054 1.897-2.033 3.297-4.246 4.335-6.639-0.023-0.962 0-2.035 0.315-2.907 0.474-0.781 1.196-1.34 2.079-1.542 1.601-4.091 2.797-8.383 3.248-12.878-0.068-0.603-0.338-1.161-0.269-1.721-2.664-3.734-3.455-8.383-3.093-13.213 0.142-0.991 0.344-2.017 0.688-2.974l1.145 0.021-0.368 1.386c0.994 1.677 3.412 3.535 5.037 4.519 2.798 1.52 6.048 1.989 9.525 1.878l1.309 0.379c1.897-1.72 4.403-1.944 6.885-2.303 1.441-0.25 2.81-0.695 4.119-1.283 0.254 0.076 0.51 0.151 0.762 0.228-1.462 0.704-2.988 1.246-4.609 1.547-2.1 0.672-4.674 0.36-6.23 2.191 1.895 1.811 1.986 4.584 1.782 7.199-0.044 0.447-0.226 0.895-0.158 1.341-0.181 0.627-0.338 1.23-0.496 1.879 1.128-0.134 2.055-1.274 2.934-2.101 0.882-1.096 0.925-2.639 1.941-3.6 0.406-0.067 0.793 0.313 1.039 0.648 3.093 4.36 8.285 4.583 12.394 6.975 1.285 1.052 1.873 2.572 1.354 4.136 1.308 0.247 2.664 0.201 4.019 0.045-0.203-0.446-0.859-0.537-1.039-1.073l0.111-0.112c1.31 0.782 2.417 2.056 4.02 2.147l1.084-0.425c-0.429-0.671-0.722-1.386-0.814-2.192l0.206-0.156c0.765 1.006 1.105 2.661 2.594 2.884 3.273-0.871 6.48 0.357 9.481 1.029-0.699-2.996 1.128-5.723 3.252-7.58l0.992-0.692c-3.094-1.677-6.388-3.063-9.933-3.757 0.068 0.335 0.542 0.537 0.451 0.873-0.948-0.38-1.467-1.408-2.346-1.878-0.655-0.605-1.65-0.894-2.485-0.605-0.79 0.225-1.422 0.805-2.167 1.141-0.181-0.179 0.023-0.469 0.114-0.648-2.056-1.342-4.334-2.192-6.728-2.751v-0.088c0.722-0.112 1.513 0.133 2.168 0.202-0.106-0.745-0.668-1.434-1.189-2.122 0.426 0.198 0.847 0.396 1.262 0.598 0.498 0.542 0.906 1.12 1.17 1.791 0.178 0.068 0.337 0.112 0.495 0.156 0.097-0.318 0.19-0.642 0.283-0.965 0.371 0.194 0.74 0.39 1.1 0.587-0.055 0.311-0.104 0.604-0.141 0.872l1.781 0.691c1.244 0.582 2.169-0.961 3.477-0.202 1.017 0.671 1.854 2.036 3.297 1.768 4.063 0.983 8.08 2.123 11.603 4.404 0.835 1.341 0.52 3.241 0.045 4.649l0.182 0.18c1.332 0.245 2.256 1.43 3.723 1.386 2.755-0.38 5.756-1.319 8.557-0.425 0.677 0.068 1.263-0.358 1.896-0.066 0.992 0.2 0.742 1.295 1.263 1.877 1.376 0.246 2.123-1.408 3.454-0.961 0.791 0.202 0.677 1.139 0.61 1.766" style="fill:#2b2b2a"/></g></svg>
